<?xml version="1.0" encoding="UTF-8" standalone="no"?>
<!DOCTYPE svg PUBLIC "-//W3C//DTD SVG 1.1//EN"
 "http://www.w3.org/Graphics/SVG/1.1/DTD/svg11.dtd">
<!-- Generated by graphviz version 9.0.0 (20230911.1827)
 -->
<!-- Title: DVT_dag Pages: 1 -->
<svg width="869pt" height="338pt"
 viewBox="0.00 0.00 868.66 337.80" xmlns="http://www.w3.org/2000/svg" xmlns:xlink="http://www.w3.org/1999/xlink">
<g id="graph0" class="graph" transform="scale(1 1) rotate(0) translate(4 333.8)">
<title>DVT_dag</title>
<polygon fill="white" stroke="none" points="-4,4 -4,-333.8 864.66,-333.8 864.66,4 -4,4"/>
<!-- p0 -->
<g id="node1" class="node">
<title>p0</title>
<ellipse fill="black" stroke="black" cx="127.35" cy="-309.7" rx="3.6" ry="3.6"/>
<text text-anchor="middle" x="61.88" y="-316.5" font-family="Times,serif" font-size="14.00">Channel.fromFilePairs</text>
</g>
<!-- p8 -->
<g id="node2" class="node">
<title>p8</title>
<ellipse fill="none" stroke="black" cx="160.35" cy="-235.6" rx="105.09" ry="18"/>
<text text-anchor="middle" x="160.35" y="-230.55" font-family="Times,serif" font-size="14.00">PRUNING_TRIMMING</text>
</g>
<!-- p0&#45;&gt;p8 -->
<g id="edge1" class="edge">
<title>p0&#45;&gt;p8</title>
<path fill="none" stroke="black" d="M126.81,-305.87C125.72,-299.47 123.76,-283.54 128.6,-271.6 129.84,-268.54 131.48,-265.57 133.36,-262.74"/>
<polygon fill="black" stroke="black" points="136.07,-264.96 139.51,-254.94 130.57,-260.63 136.07,-264.96"/>
<text text-anchor="middle" x="150.73" y="-274.8" font-family="Times,serif" font-size="14.00">read_ch</text>
</g>
<!-- p10 -->
<g id="node10" class="node">
<title>p10</title>
<ellipse fill="none" stroke="black" cx="273.35" cy="-147.1" rx="123.52" ry="18"/>
<text text-anchor="middle" x="273.35" y="-142.05" font-family="Times,serif" font-size="14.00">PRUNING_HUMAN_NOISE</text>
</g>
<!-- p8&#45;&gt;p10 -->
<g id="edge7" class="edge">
<title>p8&#45;&gt;p10</title>
<path fill="none" stroke="black" d="M182.41,-217.72C199.33,-204.76 222.92,-186.7 241.83,-172.23"/>
<polygon fill="black" stroke="black" points="243.95,-175.01 249.76,-166.16 239.69,-169.46 243.95,-175.01"/>
</g>
<!-- p1 -->
<g id="node3" class="node">
<title>p1</title>
<ellipse fill="black" stroke="black" cx="446.35" cy="-309.7" rx="3.6" ry="3.6"/>
<text text-anchor="middle" x="392.88" y="-316.5" font-family="Times,serif" font-size="14.00">Channel.fromPath</text>
</g>
<!-- p2 -->
<g id="node4" class="node">
<title>p2</title>
<ellipse fill="none" stroke="black" cx="446.35" cy="-235.6" rx="124.03" ry="18"/>
<text text-anchor="middle" x="446.35" y="-230.55" font-family="Times,serif" font-size="14.00">HUMAN_GENOME_INDEX</text>
</g>
<!-- p1&#45;&gt;p2 -->
<g id="edge2" class="edge">
<title>p1&#45;&gt;p2</title>
<path fill="none" stroke="black" d="M446.35,-305.6C446.35,-298.6 446.35,-280.94 446.35,-265.24"/>
<polygon fill="black" stroke="black" points="449.85,-265.34 446.35,-255.34 442.85,-265.34 449.85,-265.34"/>
<text text-anchor="middle" x="481.23" y="-274.8" font-family="Times,serif" font-size="14.00">reference_ch</text>
</g>
<!-- p3 -->
<g id="node5" class="node">
<title>p3</title>
<ellipse fill="black" stroke="black" cx="446.35" cy="-147.1" rx="1.8" ry="1.8"/>
</g>
<!-- p2&#45;&gt;p3 -->
<g id="edge3" class="edge">
<title>p2&#45;&gt;p3</title>
<path fill="none" stroke="black" d="M446.35,-217.51C446.35,-200.73 446.35,-175.54 446.35,-160.57"/>
<polygon fill="black" stroke="black" points="449.85,-160.73 446.35,-150.73 442.85,-160.73 449.85,-160.73"/>
</g>
<!-- p4 -->
<g id="node6" class="node">
<title>p4</title>
<ellipse fill="black" stroke="black" cx="724.35" cy="-309.7" rx="3.6" ry="3.6"/>
<text text-anchor="middle" x="670.88" y="-316.5" font-family="Times,serif" font-size="14.00">Channel.fromPath</text>
</g>
<!-- p5 -->
<g id="node7" class="node">
<title>p5</title>
<ellipse fill="none" stroke="black" cx="724.35" cy="-235.6" rx="136.31" ry="18"/>
<text text-anchor="middle" x="724.35" y="-230.55" font-family="Times,serif" font-size="14.00">PERSONAL_GENOME_INDEX</text>
</g>
<!-- p4&#45;&gt;p5 -->
<g id="edge4" class="edge">
<title>p4&#45;&gt;p5</title>
<path fill="none" stroke="black" d="M724.35,-305.6C724.35,-298.6 724.35,-280.94 724.35,-265.24"/>
<polygon fill="black" stroke="black" points="727.85,-265.34 724.35,-255.34 720.85,-265.34 727.85,-265.34"/>
<text text-anchor="middle" x="767.85" y="-274.8" font-family="Times,serif" font-size="14.00">personal_ref_ch</text>
</g>
<!-- p6 -->
<g id="node8" class="node">
<title>p6</title>
<ellipse fill="black" stroke="black" cx="724.35" cy="-147.1" rx="1.8" ry="1.8"/>
</g>
<!-- p5&#45;&gt;p6 -->
<g id="edge5" class="edge">
<title>p5&#45;&gt;p6</title>
<path fill="none" stroke="black" d="M724.35,-217.51C724.35,-200.73 724.35,-175.54 724.35,-160.57"/>
<polygon fill="black" stroke="black" points="727.85,-160.73 724.35,-150.73 720.85,-160.73 727.85,-160.73"/>
</g>
<!-- p7 -->
<g id="node9" class="node">
<title>p7</title>
<ellipse fill="black" stroke="black" cx="193.35" cy="-309.7" rx="3.6" ry="3.6"/>
</g>
<!-- p7&#45;&gt;p8 -->
<g id="edge6" class="edge">
<title>p7&#45;&gt;p8</title>
<path fill="none" stroke="black" d="M192.1,-305.96C188.93,-299.04 180.32,-280.24 172.87,-263.95"/>
<polygon fill="black" stroke="black" points="176.18,-262.78 168.84,-255.14 169.82,-265.69 176.18,-262.78"/>
<text text-anchor="middle" x="215.85" y="-274.8" font-family="Times,serif" font-size="14.00">trimadapter</text>
</g>
<!-- p12 -->
<g id="node12" class="node">
<title>p12</title>
<ellipse fill="none" stroke="black" cx="345.35" cy="-58.6" rx="149.62" ry="18"/>
<text text-anchor="middle" x="345.35" y="-53.55" font-family="Times,serif" font-size="14.00">PERSONAL_GENOME_MAPPING</text>
</g>
<!-- p10&#45;&gt;p12 -->
<g id="edge9" class="edge">
<title>p10&#45;&gt;p12</title>
<path fill="none" stroke="black" d="M287.57,-129.01C297.86,-116.65 311.95,-99.73 323.64,-85.68"/>
<polygon fill="black" stroke="black" points="326.23,-88.04 329.94,-78.11 320.85,-83.56 326.23,-88.04"/>
</g>
<!-- p9 -->
<g id="node11" class="node">
<title>p9</title>
<ellipse fill="black" stroke="black" cx="287.35" cy="-235.6" rx="3.6" ry="3.6"/>
</g>
<!-- p9&#45;&gt;p10 -->
<g id="edge8" class="edge">
<title>p9&#45;&gt;p10</title>
<path fill="none" stroke="black" d="M286.88,-231.72C285.51,-223.2 281.33,-197.42 277.98,-176.71"/>
<polygon fill="black" stroke="black" points="281.47,-176.38 276.42,-167.07 274.56,-177.5 281.47,-176.38"/>
<text text-anchor="middle" x="316.1" y="-186.3" font-family="Times,serif" font-size="14.00">reference_id</text>
</g>
<!-- p13 -->
<g id="node14" class="node">
<title>p13</title>
<ellipse fill="black" stroke="black" cx="345.35" cy="-1.8" rx="1.8" ry="1.8"/>
</g>
<!-- p12&#45;&gt;p13 -->
<g id="edge11" class="edge">
<title>p12&#45;&gt;p13</title>
<path fill="none" stroke="black" d="M345.35,-40.26C345.35,-32.18 345.35,-22.74 345.35,-15.35"/>
<polygon fill="black" stroke="black" points="348.85,-15.51 345.35,-5.51 341.85,-15.51 348.85,-15.51"/>
</g>
<!-- p11 -->
<g id="node13" class="node">
<title>p11</title>
<ellipse fill="black" stroke="black" cx="418.35" cy="-147.1" rx="3.6" ry="3.6"/>
</g>
<!-- p11&#45;&gt;p12 -->
<g id="edge10" class="edge">
<title>p11&#45;&gt;p12</title>
<path fill="none" stroke="black" d="M416.72,-143.62C414.48,-140.26 410.29,-134.09 406.35,-129.1 394.56,-114.14 380.6,-98.12 369.01,-85.24"/>
<polygon fill="black" stroke="black" points="371.75,-83.05 362.44,-77.99 366.56,-87.75 371.75,-83.05"/>
<text text-anchor="middle" x="424.1" y="-97.8" font-family="Times,serif" font-size="14.00">reference_id</text>
</g>
</g>
</svg>
