<?xml version="1.0" encoding="UTF-8" standalone="no"?>
<!DOCTYPE svg PUBLIC "-//W3C//DTD SVG 1.1//EN"
 "http://www.w3.org/Graphics/SVG/1.1/DTD/svg11.dtd">
<!-- Generated by graphviz version 9.0.0 (20230911.1827)
 -->
<!-- Title: DVT_dag Pages: 1 -->
<svg width="1029pt" height="853pt"
 viewBox="0.00 0.00 1029.23 853.20" xmlns="http://www.w3.org/2000/svg" xmlns:xlink="http://www.w3.org/1999/xlink">
<g id="graph0" class="graph" transform="scale(1 1) rotate(0) translate(4 849.2)">
<title>DVT_dag</title>
<polygon fill="white" stroke="none" points="-4,4 -4,-849.2 1025.23,-849.2 1025.23,4 -4,4"/>
<!-- p0 -->
<g id="node1" class="node">
<title>p0</title>
<ellipse fill="black" stroke="black" cx="202.92" cy="-825.1" rx="3.6" ry="3.6"/>
<text text-anchor="middle" x="137.44" y="-831.9" font-family="Times,serif" font-size="14.00">Channel.fromFilePairs</text>
</g>
<!-- p1 -->
<g id="node2" class="node">
<title>p1</title>
<ellipse fill="none" stroke="black" cx="157.92" cy="-751" rx="3.6" ry="3.6"/>
<text text-anchor="middle" x="142.32" y="-757.8" font-family="Times,serif" font-size="14.00">map</text>
</g>
<!-- p0&#45;&gt;p1 -->
<g id="edge1" class="edge">
<title>p0&#45;&gt;p1</title>
<path fill="none" stroke="black" d="M199.74,-822.96C193.3,-820.48 178.69,-813.96 171.17,-803.5 163.22,-792.45 160.03,-777.05 158.76,-765.98"/>
<polygon fill="black" stroke="black" points="162.26,-765.87 158.05,-756.14 155.28,-766.37 162.26,-765.87"/>
<text text-anchor="middle" x="193.29" y="-790.2" font-family="Times,serif" font-size="14.00">read_ch</text>
</g>
<!-- p11 -->
<g id="node11" class="node">
<title>p11</title>
<ellipse fill="none" stroke="black" cx="303.92" cy="-751" rx="105.09" ry="18"/>
<text text-anchor="middle" x="303.92" y="-745.95" font-family="Times,serif" font-size="14.00">PRUNING_TRIMMING</text>
</g>
<!-- p0&#45;&gt;p11 -->
<g id="edge8" class="edge">
<title>p0&#45;&gt;p11</title>
<path fill="none" stroke="black" d="M205.41,-822.32C214.41,-815.9 245.96,-793.37 270.96,-775.53"/>
<polygon fill="black" stroke="black" points="272.82,-778.5 278.93,-769.84 268.75,-772.8 272.82,-778.5"/>
<text text-anchor="middle" x="275.29" y="-790.2" font-family="Times,serif" font-size="14.00">read_ch</text>
</g>
<!-- p2 -->
<g id="node3" class="node">
<title>p2</title>
<ellipse fill="none" stroke="black" cx="140.92" cy="-662.5" rx="140.92" ry="18"/>
<text text-anchor="middle" x="140.92" y="-657.45" font-family="Times,serif" font-size="14.00">FASTQC_QUALITY_ORIGINAL</text>
</g>
<!-- p1&#45;&gt;p2 -->
<g id="edge2" class="edge">
<title>p1&#45;&gt;p2</title>
<path fill="none" stroke="black" d="M157.35,-747.12C155.68,-738.6 150.61,-712.82 146.54,-692.11"/>
<polygon fill="black" stroke="black" points="150.01,-691.59 144.64,-682.46 143.14,-692.94 150.01,-691.59"/>
</g>
<!-- p3 -->
<g id="node4" class="node">
<title>p3</title>
<ellipse fill="black" stroke="black" cx="140.92" cy="-589.5" rx="1.8" ry="1.8"/>
</g>
<!-- p2&#45;&gt;p3 -->
<g id="edge3" class="edge">
<title>p2&#45;&gt;p3</title>
<path fill="none" stroke="black" d="M140.92,-644.31C140.92,-631.37 140.92,-613.95 140.92,-602.49"/>
<polygon fill="black" stroke="black" points="144.42,-602.84 140.92,-592.84 137.42,-602.84 144.42,-602.84"/>
</g>
<!-- p4 -->
<g id="node5" class="node">
<title>p4</title>
<ellipse fill="black" stroke="black" cx="610.92" cy="-825.1" rx="3.6" ry="3.6"/>
<text text-anchor="middle" x="557.44" y="-831.9" font-family="Times,serif" font-size="14.00">Channel.fromPath</text>
</g>
<!-- p5 -->
<g id="node6" class="node">
<title>p5</title>
<ellipse fill="none" stroke="black" cx="610.92" cy="-751" rx="119.42" ry="18"/>
<text text-anchor="middle" x="610.92" y="-745.95" font-family="Times,serif" font-size="14.00">SPECIE_GENOME_INDEX</text>
</g>
<!-- p4&#45;&gt;p5 -->
<g id="edge4" class="edge">
<title>p4&#45;&gt;p5</title>
<path fill="none" stroke="black" d="M610.92,-821C610.92,-814 610.92,-796.34 610.92,-780.64"/>
<polygon fill="black" stroke="black" points="614.42,-780.74 610.92,-770.74 607.42,-780.74 614.42,-780.74"/>
<text text-anchor="middle" x="648.42" y="-790.2" font-family="Times,serif" font-size="14.00">specie_ref_ch</text>
</g>
<!-- p6 -->
<g id="node7" class="node">
<title>p6</title>
<ellipse fill="black" stroke="black" cx="610.92" cy="-662.5" rx="1.8" ry="1.8"/>
</g>
<!-- p5&#45;&gt;p6 -->
<g id="edge5" class="edge">
<title>p5&#45;&gt;p6</title>
<path fill="none" stroke="black" d="M610.92,-732.91C610.92,-716.13 610.92,-690.94 610.92,-675.97"/>
<polygon fill="black" stroke="black" points="614.42,-676.13 610.92,-666.13 607.42,-676.13 614.42,-676.13"/>
</g>
<!-- p7 -->
<g id="node8" class="node">
<title>p7</title>
<ellipse fill="black" stroke="black" cx="884.92" cy="-825.1" rx="3.6" ry="3.6"/>
<text text-anchor="middle" x="831.44" y="-831.9" font-family="Times,serif" font-size="14.00">Channel.fromPath</text>
</g>
<!-- p8 -->
<g id="node9" class="node">
<title>p8</title>
<ellipse fill="none" stroke="black" cx="884.92" cy="-751" rx="136.31" ry="18"/>
<text text-anchor="middle" x="884.92" y="-745.95" font-family="Times,serif" font-size="14.00">PERSONAL_GENOME_INDEX</text>
</g>
<!-- p7&#45;&gt;p8 -->
<g id="edge6" class="edge">
<title>p7&#45;&gt;p8</title>
<path fill="none" stroke="black" d="M884.92,-821C884.92,-814 884.92,-796.34 884.92,-780.64"/>
<polygon fill="black" stroke="black" points="888.42,-780.74 884.92,-770.74 881.42,-780.74 888.42,-780.74"/>
<text text-anchor="middle" x="928.42" y="-790.2" font-family="Times,serif" font-size="14.00">personal_ref_ch</text>
</g>
<!-- p9 -->
<g id="node10" class="node">
<title>p9</title>
<ellipse fill="black" stroke="black" cx="884.92" cy="-662.5" rx="1.8" ry="1.8"/>
</g>
<!-- p8&#45;&gt;p9 -->
<g id="edge7" class="edge">
<title>p8&#45;&gt;p9</title>
<path fill="none" stroke="black" d="M884.92,-732.91C884.92,-716.13 884.92,-690.94 884.92,-675.97"/>
<polygon fill="black" stroke="black" points="888.42,-676.13 884.92,-666.13 881.42,-676.13 888.42,-676.13"/>
</g>
<!-- p12 -->
<g id="node13" class="node">
<title>p12</title>
<ellipse fill="none" stroke="black" cx="303.92" cy="-662.5" rx="3.6" ry="3.6"/>
<text text-anchor="middle" x="312.32" y="-669.3" font-family="Times,serif" font-size="14.00">map</text>
</g>
<!-- p11&#45;&gt;p12 -->
<g id="edge10" class="edge">
<title>p11&#45;&gt;p12</title>
<path fill="none" stroke="black" d="M303.92,-732.91C303.92,-716.79 303.92,-692.91 303.92,-677.78"/>
<polygon fill="black" stroke="black" points="307.42,-678.01 303.92,-668.01 300.42,-678.01 307.42,-678.01"/>
</g>
<!-- p16 -->
<g id="node16" class="node">
<title>p16</title>
<ellipse fill="none" stroke="black" cx="457.92" cy="-662.5" rx="132.73" ry="18"/>
<text text-anchor="middle" x="457.92" y="-657.45" font-family="Times,serif" font-size="14.00">SPECIE_GENOME_MAPPING</text>
</g>
<!-- p11&#45;&gt;p16 -->
<g id="edge13" class="edge">
<title>p11&#45;&gt;p16</title>
<path fill="none" stroke="black" d="M333.61,-733.32C357.64,-719.83 391.69,-700.7 418.09,-685.87"/>
<polygon fill="black" stroke="black" points="419.47,-689.11 426.47,-681.16 416.04,-683.01 419.47,-689.11"/>
</g>
<!-- p10 -->
<g id="node12" class="node">
<title>p10</title>
<ellipse fill="black" stroke="black" cx="303.92" cy="-825.1" rx="3.6" ry="3.6"/>
</g>
<!-- p10&#45;&gt;p11 -->
<g id="edge9" class="edge">
<title>p10&#45;&gt;p11</title>
<path fill="none" stroke="black" d="M303.92,-821C303.92,-814 303.92,-796.34 303.92,-780.64"/>
<polygon fill="black" stroke="black" points="307.42,-780.74 303.92,-770.74 300.42,-780.74 307.42,-780.74"/>
<text text-anchor="middle" x="335.42" y="-790.2" font-family="Times,serif" font-size="14.00">trimadapter</text>
</g>
<!-- p13 -->
<g id="node14" class="node">
<title>p13</title>
<ellipse fill="none" stroke="black" cx="303.92" cy="-589.5" rx="123.52" ry="18"/>
<text text-anchor="middle" x="303.92" y="-584.45" font-family="Times,serif" font-size="14.00">FASTQC_QUALITY_FINAL</text>
</g>
<!-- p12&#45;&gt;p13 -->
<g id="edge11" class="edge">
<title>p12&#45;&gt;p13</title>
<path fill="none" stroke="black" d="M303.92,-658.45C303.92,-651.6 303.92,-634.38 303.92,-618.99"/>
<polygon fill="black" stroke="black" points="307.42,-619.29 303.92,-609.29 300.42,-619.29 307.42,-619.29"/>
</g>
<!-- p14 -->
<g id="node15" class="node">
<title>p14</title>
<ellipse fill="black" stroke="black" cx="303.92" cy="-501" rx="1.8" ry="1.8"/>
</g>
<!-- p13&#45;&gt;p14 -->
<g id="edge12" class="edge">
<title>p13&#45;&gt;p14</title>
<path fill="none" stroke="black" d="M303.92,-571.41C303.92,-554.63 303.92,-529.44 303.92,-514.47"/>
<polygon fill="black" stroke="black" points="307.42,-514.63 303.92,-504.63 300.42,-514.63 307.42,-514.63"/>
</g>
<!-- p17 -->
<g id="node18" class="node">
<title>p17</title>
<ellipse fill="none" stroke="black" cx="457.92" cy="-589.5" rx="3.6" ry="3.6"/>
<text text-anchor="middle" x="442.32" y="-596.3" font-family="Times,serif" font-size="14.00">map</text>
</g>
<!-- p16&#45;&gt;p17 -->
<g id="edge15" class="edge">
<title>p16&#45;&gt;p17</title>
<path fill="none" stroke="black" d="M457.92,-644.31C457.92,-632.08 457.92,-615.85 457.92,-604.42"/>
<polygon fill="black" stroke="black" points="461.42,-604.69 457.92,-594.69 454.42,-604.69 461.42,-604.69"/>
</g>
<!-- p15 -->
<g id="node17" class="node">
<title>p15</title>
<ellipse fill="black" stroke="black" cx="457.92" cy="-751" rx="3.6" ry="3.6"/>
</g>
<!-- p15&#45;&gt;p16 -->
<g id="edge14" class="edge">
<title>p15&#45;&gt;p16</title>
<path fill="none" stroke="black" d="M457.92,-747.12C457.92,-738.64 457.92,-713.06 457.92,-692.4"/>
<polygon fill="black" stroke="black" points="461.42,-692.49 457.92,-682.49 454.42,-692.49 461.42,-692.49"/>
<text text-anchor="middle" x="488.29" y="-701.7" font-family="Times,serif" font-size="14.00">index_base</text>
</g>
<!-- p19 -->
<g id="node19" class="node">
<title>p19</title>
<ellipse fill="none" stroke="black" cx="547.92" cy="-501" rx="149.62" ry="18"/>
<text text-anchor="middle" x="547.92" y="-495.95" font-family="Times,serif" font-size="14.00">PERSONAL_GENOME_MAPPING</text>
</g>
<!-- p17&#45;&gt;p19 -->
<g id="edge16" class="edge">
<title>p17&#45;&gt;p19</title>
<path fill="none" stroke="black" d="M456.75,-585.84C453.34,-577.69 444.37,-552.61 455.17,-537 458.93,-531.56 463.65,-526.96 468.97,-523.08"/>
<polygon fill="black" stroke="black" points="470.48,-526.26 477.11,-518 466.77,-520.32 470.48,-526.26"/>
<text text-anchor="middle" x="526.79" y="-540.2" font-family="Times,serif" font-size="14.00">specie_mapping_tuple_ch</text>
</g>
<!-- p20 -->
<g id="node21" class="node">
<title>p20</title>
<ellipse fill="none" stroke="black" cx="547.92" cy="-442.4" rx="3.6" ry="3.6"/>
<text text-anchor="middle" x="532.32" y="-449.2" font-family="Times,serif" font-size="14.00">map</text>
</g>
<!-- p19&#45;&gt;p20 -->
<g id="edge18" class="edge">
<title>p19&#45;&gt;p20</title>
<path fill="none" stroke="black" d="M547.92,-482.71C547.92,-474.68 547.92,-465.26 547.92,-457.65"/>
<polygon fill="black" stroke="black" points="551.42,-457.87 547.92,-447.87 544.42,-457.87 551.42,-457.87"/>
</g>
<!-- p18 -->
<g id="node20" class="node">
<title>p18</title>
<ellipse fill="black" stroke="black" cx="622.92" cy="-589.5" rx="3.6" ry="3.6"/>
</g>
<!-- p18&#45;&gt;p19 -->
<g id="edge17" class="edge">
<title>p18&#45;&gt;p19</title>
<path fill="none" stroke="black" d="M622.36,-585.86C620.54,-577.76 614.12,-552.83 600.92,-537 597.48,-532.88 593.43,-529.06 589.13,-525.57"/>
<polygon fill="black" stroke="black" points="591.41,-522.91 581.28,-519.8 587.26,-528.55 591.41,-522.91"/>
<text text-anchor="middle" x="644.67" y="-540.2" font-family="Times,serif" font-size="14.00">reference_id</text>
</g>
<!-- p21 -->
<g id="node22" class="node">
<title>p21</title>
<ellipse fill="none" stroke="black" cx="547.92" cy="-368.3" rx="89.23" ry="18"/>
<text text-anchor="middle" x="547.92" y="-363.25" font-family="Times,serif" font-size="14.00">MARKDUPLICATE</text>
</g>
<!-- p20&#45;&gt;p21 -->
<g id="edge19" class="edge">
<title>p20&#45;&gt;p21</title>
<path fill="none" stroke="black" d="M547.92,-438.3C547.92,-431.3 547.92,-413.64 547.92,-397.94"/>
<polygon fill="black" stroke="black" points="551.42,-398.04 547.92,-388.04 544.42,-398.04 551.42,-398.04"/>
<text text-anchor="middle" x="569.67" y="-407.5" font-family="Times,serif" font-size="14.00">bam_ch</text>
</g>
<!-- p22 -->
<g id="node23" class="node">
<title>p22</title>
<ellipse fill="none" stroke="black" cx="547.92" cy="-309.7" rx="3.6" ry="3.6"/>
<text text-anchor="middle" x="532.32" y="-316.5" font-family="Times,serif" font-size="14.00">map</text>
</g>
<!-- p21&#45;&gt;p22 -->
<g id="edge20" class="edge">
<title>p21&#45;&gt;p22</title>
<path fill="none" stroke="black" d="M547.92,-350.01C547.92,-341.98 547.92,-332.56 547.92,-324.95"/>
<polygon fill="black" stroke="black" points="551.42,-325.17 547.92,-315.17 544.42,-325.17 551.42,-325.17"/>
</g>
<!-- p23 -->
<g id="node24" class="node">
<title>p23</title>
<ellipse fill="none" stroke="black" cx="547.92" cy="-235.6" rx="84.62" ry="18"/>
<text text-anchor="middle" x="547.92" y="-230.55" font-family="Times,serif" font-size="14.00">ADDORREPLACE</text>
</g>
<!-- p22&#45;&gt;p23 -->
<g id="edge21" class="edge">
<title>p22&#45;&gt;p23</title>
<path fill="none" stroke="black" d="M547.92,-305.6C547.92,-298.6 547.92,-280.94 547.92,-265.24"/>
<polygon fill="black" stroke="black" points="551.42,-265.34 547.92,-255.34 544.42,-265.34 551.42,-265.34"/>
<text text-anchor="middle" x="577.17" y="-274.8" font-family="Times,serif" font-size="14.00">replace_ch</text>
</g>
<!-- p25 -->
<g id="node25" class="node">
<title>p25</title>
<ellipse fill="none" stroke="black" cx="600.92" cy="-147.1" rx="87.18" ry="18"/>
<text text-anchor="middle" x="600.92" y="-142.05" font-family="Times,serif" font-size="14.00">VARIANTCALLER</text>
</g>
<!-- p23&#45;&gt;p25 -->
<g id="edge22" class="edge">
<title>p23&#45;&gt;p25</title>
<path fill="none" stroke="black" d="M558.39,-217.51C565.82,-205.39 575.94,-188.87 584.44,-174.99"/>
<polygon fill="black" stroke="black" points="587.26,-177.1 589.5,-166.74 581.29,-173.44 587.26,-177.1"/>
</g>
<!-- p26 -->
<g id="node27" class="node">
<title>p26</title>
<ellipse fill="none" stroke="black" cx="600.92" cy="-58.6" rx="3.6" ry="3.6"/>
<text text-anchor="middle" x="584.19" y="-65.4" font-family="Times,serif" font-size="14.00">view</text>
</g>
<!-- p25&#45;&gt;p26 -->
<g id="edge24" class="edge">
<title>p25&#45;&gt;p26</title>
<path fill="none" stroke="black" d="M600.92,-129.01C600.92,-112.89 600.92,-89.01 600.92,-73.88"/>
<polygon fill="black" stroke="black" points="604.42,-74.11 600.92,-64.11 597.42,-74.11 604.42,-74.11"/>
</g>
<!-- p29 -->
<g id="node29" class="node">
<title>p29</title>
<ellipse fill="none" stroke="black" cx="695.92" cy="-58.6" rx="59.54" ry="18"/>
<text text-anchor="middle" x="695.92" y="-53.55" font-family="Times,serif" font-size="14.00">GENOTYPE</text>
</g>
<!-- p25&#45;&gt;p29 -->
<g id="edge26" class="edge">
<title>p25&#45;&gt;p29</title>
<path fill="none" stroke="black" d="M619.23,-129.42C633.52,-116.42 653.55,-98.17 669.56,-83.6"/>
<polygon fill="black" stroke="black" points="671.82,-86.27 676.86,-76.95 667.11,-81.1 671.82,-86.27"/>
</g>
<!-- p24 -->
<g id="node26" class="node">
<title>p24</title>
<ellipse fill="black" stroke="black" cx="653.92" cy="-235.6" rx="3.6" ry="3.6"/>
</g>
<!-- p24&#45;&gt;p25 -->
<g id="edge23" class="edge">
<title>p24&#45;&gt;p25</title>
<path fill="none" stroke="black" d="M652.39,-232.1C647.26,-223.73 630.26,-195.99 617.19,-174.65"/>
<polygon fill="black" stroke="black" points="620.33,-173.08 612.12,-166.39 614.36,-176.74 620.33,-173.08"/>
<text text-anchor="middle" x="658.04" y="-186.3" font-family="Times,serif" font-size="14.00">reference</text>
</g>
<!-- p27 -->
<g id="node28" class="node">
<title>p27</title>
<ellipse fill="black" stroke="black" cx="600.92" cy="-1.8" rx="1.8" ry="1.8"/>
</g>
<!-- p26&#45;&gt;p27 -->
<g id="edge25" class="edge">
<title>p26&#45;&gt;p27</title>
<path fill="none" stroke="black" d="M600.92,-54.65C600.92,-47.32 600.92,-27.91 600.92,-15.03"/>
<polygon fill="black" stroke="black" points="604.42,-15.32 600.92,-5.32 597.42,-15.32 604.42,-15.32"/>
</g>
<!-- p30 -->
<g id="node31" class="node">
<title>p30</title>
<ellipse fill="black" stroke="black" cx="695.92" cy="-1.8" rx="1.8" ry="1.8"/>
</g>
<!-- p29&#45;&gt;p30 -->
<g id="edge28" class="edge">
<title>p29&#45;&gt;p30</title>
<path fill="none" stroke="black" d="M695.92,-40.26C695.92,-32.18 695.92,-22.74 695.92,-15.35"/>
<polygon fill="black" stroke="black" points="699.42,-15.51 695.92,-5.51 692.42,-15.51 699.42,-15.51"/>
</g>
<!-- p28 -->
<g id="node30" class="node">
<title>p28</title>
<ellipse fill="black" stroke="black" cx="709.92" cy="-147.1" rx="3.6" ry="3.6"/>
</g>
<!-- p28&#45;&gt;p29 -->
<g id="edge27" class="edge">
<title>p28&#45;&gt;p29</title>
<path fill="none" stroke="black" d="M709.45,-143.22C708.07,-134.7 703.9,-108.92 700.55,-88.21"/>
<polygon fill="black" stroke="black" points="704.04,-87.88 698.99,-78.57 697.13,-89 704.04,-87.88"/>
<text text-anchor="middle" x="730.04" y="-97.8" font-family="Times,serif" font-size="14.00">reference</text>
</g>
</g>
</svg>
