<?xml version="1.0" encoding="UTF-8" standalone="no"?>
<!DOCTYPE svg PUBLIC "-//W3C//DTD SVG 1.1//EN"
 "http://www.w3.org/Graphics/SVG/1.1/DTD/svg11.dtd">
<!-- Generated by graphviz version 9.0.0 (20230911.1827)
 -->
<!-- Title: DVT_dag Pages: 1 -->
<svg width="1029pt" height="765pt"
 viewBox="0.00 0.00 1029.23 764.70" xmlns="http://www.w3.org/2000/svg" xmlns:xlink="http://www.w3.org/1999/xlink">
<g id="graph0" class="graph" transform="scale(1 1) rotate(0) translate(4 760.7)">
<title>DVT_dag</title>
<polygon fill="white" stroke="none" points="-4,4 -4,-760.7 1025.23,-760.7 1025.23,4 -4,4"/>
<!-- p0 -->
<g id="node1" class="node">
<title>p0</title>
<ellipse fill="black" stroke="black" cx="202.92" cy="-736.6" rx="3.6" ry="3.6"/>
<text text-anchor="middle" x="137.44" y="-743.4" font-family="Times,serif" font-size="14.00">Channel.fromFilePairs</text>
</g>
<!-- p1 -->
<g id="node2" class="node">
<title>p1</title>
<ellipse fill="none" stroke="black" cx="157.92" cy="-662.5" rx="3.6" ry="3.6"/>
<text text-anchor="middle" x="142.32" y="-669.3" font-family="Times,serif" font-size="14.00">map</text>
</g>
<!-- p0&#45;&gt;p1 -->
<g id="edge1" class="edge">
<title>p0&#45;&gt;p1</title>
<path fill="none" stroke="black" d="M199.74,-734.46C193.3,-731.98 178.69,-725.46 171.17,-715 163.22,-703.95 160.03,-688.55 158.76,-677.48"/>
<polygon fill="black" stroke="black" points="162.26,-677.37 158.05,-667.64 155.28,-677.87 162.26,-677.37"/>
<text text-anchor="middle" x="193.29" y="-701.7" font-family="Times,serif" font-size="14.00">read_ch</text>
</g>
<!-- p11 -->
<g id="node11" class="node">
<title>p11</title>
<ellipse fill="none" stroke="black" cx="303.92" cy="-662.5" rx="105.09" ry="18"/>
<text text-anchor="middle" x="303.92" y="-657.45" font-family="Times,serif" font-size="14.00">PRUNING_TRIMMING</text>
</g>
<!-- p0&#45;&gt;p11 -->
<g id="edge8" class="edge">
<title>p0&#45;&gt;p11</title>
<path fill="none" stroke="black" d="M205.41,-733.82C214.41,-727.4 245.96,-704.87 270.96,-687.03"/>
<polygon fill="black" stroke="black" points="272.82,-690 278.93,-681.34 268.75,-684.3 272.82,-690"/>
<text text-anchor="middle" x="275.29" y="-701.7" font-family="Times,serif" font-size="14.00">read_ch</text>
</g>
<!-- p2 -->
<g id="node3" class="node">
<title>p2</title>
<ellipse fill="none" stroke="black" cx="140.92" cy="-574" rx="140.92" ry="18"/>
<text text-anchor="middle" x="140.92" y="-568.95" font-family="Times,serif" font-size="14.00">FASTQC_QUALITY_ORIGINAL</text>
</g>
<!-- p1&#45;&gt;p2 -->
<g id="edge2" class="edge">
<title>p1&#45;&gt;p2</title>
<path fill="none" stroke="black" d="M157.35,-658.62C155.68,-650.1 150.61,-624.32 146.54,-603.61"/>
<polygon fill="black" stroke="black" points="150.01,-603.09 144.64,-593.96 143.14,-604.44 150.01,-603.09"/>
</g>
<!-- p3 -->
<g id="node4" class="node">
<title>p3</title>
<ellipse fill="black" stroke="black" cx="140.92" cy="-501" rx="1.8" ry="1.8"/>
</g>
<!-- p2&#45;&gt;p3 -->
<g id="edge3" class="edge">
<title>p2&#45;&gt;p3</title>
<path fill="none" stroke="black" d="M140.92,-555.81C140.92,-542.87 140.92,-525.45 140.92,-513.99"/>
<polygon fill="black" stroke="black" points="144.42,-514.34 140.92,-504.34 137.42,-514.34 144.42,-514.34"/>
</g>
<!-- p4 -->
<g id="node5" class="node">
<title>p4</title>
<ellipse fill="black" stroke="black" cx="610.92" cy="-736.6" rx="3.6" ry="3.6"/>
<text text-anchor="middle" x="557.44" y="-743.4" font-family="Times,serif" font-size="14.00">Channel.fromPath</text>
</g>
<!-- p5 -->
<g id="node6" class="node">
<title>p5</title>
<ellipse fill="none" stroke="black" cx="610.92" cy="-662.5" rx="119.42" ry="18"/>
<text text-anchor="middle" x="610.92" y="-657.45" font-family="Times,serif" font-size="14.00">SPECIE_GENOME_INDEX</text>
</g>
<!-- p4&#45;&gt;p5 -->
<g id="edge4" class="edge">
<title>p4&#45;&gt;p5</title>
<path fill="none" stroke="black" d="M610.92,-732.5C610.92,-725.5 610.92,-707.84 610.92,-692.14"/>
<polygon fill="black" stroke="black" points="614.42,-692.24 610.92,-682.24 607.42,-692.24 614.42,-692.24"/>
<text text-anchor="middle" x="648.42" y="-701.7" font-family="Times,serif" font-size="14.00">specie_ref_ch</text>
</g>
<!-- p6 -->
<g id="node7" class="node">
<title>p6</title>
<ellipse fill="black" stroke="black" cx="610.92" cy="-574" rx="1.8" ry="1.8"/>
</g>
<!-- p5&#45;&gt;p6 -->
<g id="edge5" class="edge">
<title>p5&#45;&gt;p6</title>
<path fill="none" stroke="black" d="M610.92,-644.41C610.92,-627.63 610.92,-602.44 610.92,-587.47"/>
<polygon fill="black" stroke="black" points="614.42,-587.63 610.92,-577.63 607.42,-587.63 614.42,-587.63"/>
</g>
<!-- p7 -->
<g id="node8" class="node">
<title>p7</title>
<ellipse fill="black" stroke="black" cx="884.92" cy="-736.6" rx="3.6" ry="3.6"/>
<text text-anchor="middle" x="831.44" y="-743.4" font-family="Times,serif" font-size="14.00">Channel.fromPath</text>
</g>
<!-- p8 -->
<g id="node9" class="node">
<title>p8</title>
<ellipse fill="none" stroke="black" cx="884.92" cy="-662.5" rx="136.31" ry="18"/>
<text text-anchor="middle" x="884.92" y="-657.45" font-family="Times,serif" font-size="14.00">PERSONAL_GENOME_INDEX</text>
</g>
<!-- p7&#45;&gt;p8 -->
<g id="edge6" class="edge">
<title>p7&#45;&gt;p8</title>
<path fill="none" stroke="black" d="M884.92,-732.5C884.92,-725.5 884.92,-707.84 884.92,-692.14"/>
<polygon fill="black" stroke="black" points="888.42,-692.24 884.92,-682.24 881.42,-692.24 888.42,-692.24"/>
<text text-anchor="middle" x="928.42" y="-701.7" font-family="Times,serif" font-size="14.00">personal_ref_ch</text>
</g>
<!-- p9 -->
<g id="node10" class="node">
<title>p9</title>
<ellipse fill="black" stroke="black" cx="884.92" cy="-574" rx="1.8" ry="1.8"/>
</g>
<!-- p8&#45;&gt;p9 -->
<g id="edge7" class="edge">
<title>p8&#45;&gt;p9</title>
<path fill="none" stroke="black" d="M884.92,-644.41C884.92,-627.63 884.92,-602.44 884.92,-587.47"/>
<polygon fill="black" stroke="black" points="888.42,-587.63 884.92,-577.63 881.42,-587.63 888.42,-587.63"/>
</g>
<!-- p12 -->
<g id="node13" class="node">
<title>p12</title>
<ellipse fill="none" stroke="black" cx="303.92" cy="-574" rx="3.6" ry="3.6"/>
<text text-anchor="middle" x="312.32" y="-580.8" font-family="Times,serif" font-size="14.00">map</text>
</g>
<!-- p11&#45;&gt;p12 -->
<g id="edge10" class="edge">
<title>p11&#45;&gt;p12</title>
<path fill="none" stroke="black" d="M303.92,-644.41C303.92,-628.29 303.92,-604.41 303.92,-589.28"/>
<polygon fill="black" stroke="black" points="307.42,-589.51 303.92,-579.51 300.42,-589.51 307.42,-589.51"/>
</g>
<!-- p16 -->
<g id="node16" class="node">
<title>p16</title>
<ellipse fill="none" stroke="black" cx="457.92" cy="-574" rx="132.73" ry="18"/>
<text text-anchor="middle" x="457.92" y="-568.95" font-family="Times,serif" font-size="14.00">SPECIE_GENOME_MAPPING</text>
</g>
<!-- p11&#45;&gt;p16 -->
<g id="edge13" class="edge">
<title>p11&#45;&gt;p16</title>
<path fill="none" stroke="black" d="M333.61,-644.82C357.64,-631.33 391.69,-612.2 418.09,-597.37"/>
<polygon fill="black" stroke="black" points="419.47,-600.61 426.47,-592.66 416.04,-594.51 419.47,-600.61"/>
</g>
<!-- p10 -->
<g id="node12" class="node">
<title>p10</title>
<ellipse fill="black" stroke="black" cx="303.92" cy="-736.6" rx="3.6" ry="3.6"/>
</g>
<!-- p10&#45;&gt;p11 -->
<g id="edge9" class="edge">
<title>p10&#45;&gt;p11</title>
<path fill="none" stroke="black" d="M303.92,-732.5C303.92,-725.5 303.92,-707.84 303.92,-692.14"/>
<polygon fill="black" stroke="black" points="307.42,-692.24 303.92,-682.24 300.42,-692.24 307.42,-692.24"/>
<text text-anchor="middle" x="335.42" y="-701.7" font-family="Times,serif" font-size="14.00">trimadapter</text>
</g>
<!-- p13 -->
<g id="node14" class="node">
<title>p13</title>
<ellipse fill="none" stroke="black" cx="303.92" cy="-501" rx="123.52" ry="18"/>
<text text-anchor="middle" x="303.92" y="-495.95" font-family="Times,serif" font-size="14.00">FASTQC_QUALITY_FINAL</text>
</g>
<!-- p12&#45;&gt;p13 -->
<g id="edge11" class="edge">
<title>p12&#45;&gt;p13</title>
<path fill="none" stroke="black" d="M303.92,-569.95C303.92,-563.1 303.92,-545.88 303.92,-530.49"/>
<polygon fill="black" stroke="black" points="307.42,-530.79 303.92,-520.79 300.42,-530.79 307.42,-530.79"/>
</g>
<!-- p14 -->
<g id="node15" class="node">
<title>p14</title>
<ellipse fill="black" stroke="black" cx="303.92" cy="-412.5" rx="1.8" ry="1.8"/>
</g>
<!-- p13&#45;&gt;p14 -->
<g id="edge12" class="edge">
<title>p13&#45;&gt;p14</title>
<path fill="none" stroke="black" d="M303.92,-482.91C303.92,-466.13 303.92,-440.94 303.92,-425.97"/>
<polygon fill="black" stroke="black" points="307.42,-426.13 303.92,-416.13 300.42,-426.13 307.42,-426.13"/>
</g>
<!-- p17 -->
<g id="node18" class="node">
<title>p17</title>
<ellipse fill="none" stroke="black" cx="457.92" cy="-501" rx="3.6" ry="3.6"/>
<text text-anchor="middle" x="442.32" y="-507.8" font-family="Times,serif" font-size="14.00">map</text>
</g>
<!-- p16&#45;&gt;p17 -->
<g id="edge15" class="edge">
<title>p16&#45;&gt;p17</title>
<path fill="none" stroke="black" d="M457.92,-555.81C457.92,-543.58 457.92,-527.35 457.92,-515.92"/>
<polygon fill="black" stroke="black" points="461.42,-516.19 457.92,-506.19 454.42,-516.19 461.42,-516.19"/>
</g>
<!-- p15 -->
<g id="node17" class="node">
<title>p15</title>
<ellipse fill="black" stroke="black" cx="457.92" cy="-662.5" rx="3.6" ry="3.6"/>
</g>
<!-- p15&#45;&gt;p16 -->
<g id="edge14" class="edge">
<title>p15&#45;&gt;p16</title>
<path fill="none" stroke="black" d="M457.92,-658.62C457.92,-650.14 457.92,-624.56 457.92,-603.9"/>
<polygon fill="black" stroke="black" points="461.42,-603.99 457.92,-593.99 454.42,-603.99 461.42,-603.99"/>
<text text-anchor="middle" x="488.29" y="-613.2" font-family="Times,serif" font-size="14.00">index_base</text>
</g>
<!-- p18 -->
<g id="node19" class="node">
<title>p18</title>
<ellipse fill="none" stroke="black" cx="396.92" cy="-412.5" rx="3.6" ry="3.6"/>
<text text-anchor="middle" x="380.19" y="-419.3" font-family="Times,serif" font-size="14.00">view</text>
</g>
<!-- p17&#45;&gt;p18 -->
<g id="edge16" class="edge">
<title>p17&#45;&gt;p18</title>
<path fill="none" stroke="black" d="M455.61,-497.81C451.89,-494.35 444.24,-487.57 436.92,-483 420.81,-472.95 408.58,-480.88 398.17,-465 390.86,-453.85 391.64,-438.22 393.56,-427.11"/>
<polygon fill="black" stroke="black" points="396.92,-428.14 395.76,-417.61 390.1,-426.57 396.92,-428.14"/>
<text text-anchor="middle" x="469.79" y="-451.7" font-family="Times,serif" font-size="14.00">specie_mapping_tuple_ch</text>
</g>
<!-- p21 -->
<g id="node21" class="node">
<title>p21</title>
<ellipse fill="none" stroke="black" cx="646.92" cy="-412.5" rx="149.62" ry="18"/>
<text text-anchor="middle" x="646.92" y="-407.45" font-family="Times,serif" font-size="14.00">PERSONAL_GENOME_MAPPING</text>
</g>
<!-- p17&#45;&gt;p21 -->
<g id="edge18" class="edge">
<title>p17&#45;&gt;p21</title>
<path fill="none" stroke="black" d="M461.22,-499C472.67,-495.43 511.52,-482.65 539.92,-465 549.49,-459.05 549.53,-454.33 559.17,-448.5 567.93,-443.2 577.63,-438.4 587.3,-434.18"/>
<polygon fill="black" stroke="black" points="588.46,-437.49 596.34,-430.41 585.76,-431.03 588.46,-437.49"/>
<text text-anchor="middle" x="630.79" y="-451.7" font-family="Times,serif" font-size="14.00">specie_mapping_tuple_ch</text>
</g>
<!-- p19 -->
<g id="node20" class="node">
<title>p19</title>
<ellipse fill="black" stroke="black" cx="396.92" cy="-353.9" rx="1.8" ry="1.8"/>
</g>
<!-- p18&#45;&gt;p19 -->
<g id="edge17" class="edge">
<title>p18&#45;&gt;p19</title>
<path fill="none" stroke="black" d="M396.92,-408.46C396.92,-400.8 396.92,-380.39 396.92,-367.1"/>
<polygon fill="black" stroke="black" points="400.42,-367.46 396.92,-357.46 393.42,-367.46 400.42,-367.46"/>
</g>
<!-- p22 -->
<g id="node23" class="node">
<title>p22</title>
<ellipse fill="none" stroke="black" cx="646.92" cy="-353.9" rx="3.6" ry="3.6"/>
<text text-anchor="middle" x="631.32" y="-360.7" font-family="Times,serif" font-size="14.00">map</text>
</g>
<!-- p21&#45;&gt;p22 -->
<g id="edge20" class="edge">
<title>p21&#45;&gt;p22</title>
<path fill="none" stroke="black" d="M646.92,-394.21C646.92,-386.18 646.92,-376.76 646.92,-369.15"/>
<polygon fill="black" stroke="black" points="650.42,-369.37 646.92,-359.37 643.42,-369.37 650.42,-369.37"/>
</g>
<!-- p20 -->
<g id="node22" class="node">
<title>p20</title>
<ellipse fill="black" stroke="black" cx="726.92" cy="-501" rx="3.6" ry="3.6"/>
</g>
<!-- p20&#45;&gt;p21 -->
<g id="edge19" class="edge">
<title>p20&#45;&gt;p21</title>
<path fill="none" stroke="black" d="M726.39,-497.34C724.65,-489.16 718.44,-464.05 704.92,-448.5 701.16,-444.17 696.72,-440.23 692.01,-436.67"/>
<polygon fill="black" stroke="black" points="694.19,-433.92 683.96,-431.17 690.24,-439.7 694.19,-433.92"/>
<text text-anchor="middle" x="748.67" y="-451.7" font-family="Times,serif" font-size="14.00">reference_id</text>
</g>
<!-- p23 -->
<g id="node24" class="node">
<title>p23</title>
<ellipse fill="none" stroke="black" cx="646.92" cy="-279.8" rx="89.23" ry="18"/>
<text text-anchor="middle" x="646.92" y="-274.75" font-family="Times,serif" font-size="14.00">MARKDUPLICATE</text>
</g>
<!-- p22&#45;&gt;p23 -->
<g id="edge21" class="edge">
<title>p22&#45;&gt;p23</title>
<path fill="none" stroke="black" d="M646.92,-349.8C646.92,-342.8 646.92,-325.14 646.92,-309.44"/>
<polygon fill="black" stroke="black" points="650.42,-309.54 646.92,-299.54 643.42,-309.54 650.42,-309.54"/>
<text text-anchor="middle" x="668.67" y="-319" font-family="Times,serif" font-size="14.00">bam_ch</text>
</g>
<!-- p24 -->
<g id="node25" class="node">
<title>p24</title>
<ellipse fill="none" stroke="black" cx="646.92" cy="-221.2" rx="3.6" ry="3.6"/>
<text text-anchor="middle" x="631.32" y="-228" font-family="Times,serif" font-size="14.00">map</text>
</g>
<!-- p23&#45;&gt;p24 -->
<g id="edge22" class="edge">
<title>p23&#45;&gt;p24</title>
<path fill="none" stroke="black" d="M646.92,-261.51C646.92,-253.48 646.92,-244.06 646.92,-236.45"/>
<polygon fill="black" stroke="black" points="650.42,-236.67 646.92,-226.67 643.42,-236.67 650.42,-236.67"/>
</g>
<!-- p25 -->
<g id="node26" class="node">
<title>p25</title>
<ellipse fill="none" stroke="black" cx="646.92" cy="-147.1" rx="84.62" ry="18"/>
<text text-anchor="middle" x="646.92" y="-142.05" font-family="Times,serif" font-size="14.00">ADDORREPLACE</text>
</g>
<!-- p24&#45;&gt;p25 -->
<g id="edge23" class="edge">
<title>p24&#45;&gt;p25</title>
<path fill="none" stroke="black" d="M646.92,-217.1C646.92,-210.1 646.92,-192.44 646.92,-176.74"/>
<polygon fill="black" stroke="black" points="650.42,-176.84 646.92,-166.84 643.42,-176.84 650.42,-176.84"/>
<text text-anchor="middle" x="676.17" y="-186.3" font-family="Times,serif" font-size="14.00">replace_ch</text>
</g>
<!-- p27 -->
<g id="node27" class="node">
<title>p27</title>
<ellipse fill="none" stroke="black" cx="699.92" cy="-58.6" rx="87.18" ry="18"/>
<text text-anchor="middle" x="699.92" y="-53.55" font-family="Times,serif" font-size="14.00">VARIANTCALLER</text>
</g>
<!-- p25&#45;&gt;p27 -->
<g id="edge24" class="edge">
<title>p25&#45;&gt;p27</title>
<path fill="none" stroke="black" d="M657.39,-129.01C664.82,-116.89 674.94,-100.37 683.44,-86.49"/>
<polygon fill="black" stroke="black" points="686.26,-88.6 688.5,-78.24 680.29,-84.94 686.26,-88.6"/>
</g>
<!-- p28 -->
<g id="node29" class="node">
<title>p28</title>
<ellipse fill="black" stroke="black" cx="699.92" cy="-1.8" rx="1.8" ry="1.8"/>
</g>
<!-- p27&#45;&gt;p28 -->
<g id="edge26" class="edge">
<title>p27&#45;&gt;p28</title>
<path fill="none" stroke="black" d="M699.92,-40.26C699.92,-32.18 699.92,-22.74 699.92,-15.35"/>
<polygon fill="black" stroke="black" points="703.42,-15.51 699.92,-5.51 696.42,-15.51 703.42,-15.51"/>
</g>
<!-- p26 -->
<g id="node28" class="node">
<title>p26</title>
<ellipse fill="black" stroke="black" cx="752.92" cy="-147.1" rx="3.6" ry="3.6"/>
</g>
<!-- p26&#45;&gt;p27 -->
<g id="edge25" class="edge">
<title>p26&#45;&gt;p27</title>
<path fill="none" stroke="black" d="M751.39,-143.6C746.26,-135.23 729.26,-107.49 716.19,-86.15"/>
<polygon fill="black" stroke="black" points="719.33,-84.58 711.12,-77.89 713.36,-88.24 719.33,-84.58"/>
<text text-anchor="middle" x="757.04" y="-97.8" font-family="Times,serif" font-size="14.00">reference</text>
</g>
</g>
</svg>
