<?xml version="1.0" encoding="UTF-8" standalone="no"?>
<!DOCTYPE svg PUBLIC "-//W3C//DTD SVG 1.1//EN"
 "http://www.w3.org/Graphics/SVG/1.1/DTD/svg11.dtd">
<!-- Generated by graphviz version 9.0.0 (20230911.1827)
 -->
<!-- Title: DVT_dag Pages: 1 -->
<svg width="486pt" height="161pt"
 viewBox="0.00 0.00 486.35 160.80" xmlns="http://www.w3.org/2000/svg" xmlns:xlink="http://www.w3.org/1999/xlink">
<g id="graph0" class="graph" transform="scale(1 1) rotate(0) translate(4 156.8)">
<title>DVT_dag</title>
<polygon fill="white" stroke="none" points="-4,4 -4,-156.8 482.35,-156.8 482.35,4 -4,4"/>
<!-- p0 -->
<g id="node1" class="node">
<title>p0</title>
<ellipse fill="black" stroke="black" cx="127.35" cy="-132.7" rx="3.6" ry="3.6"/>
<text text-anchor="middle" x="61.88" y="-139.5" font-family="Times,serif" font-size="14.00">Channel.fromFilePairs</text>
</g>
<!-- p6 -->
<g id="node2" class="node">
<title>p6</title>
<ellipse fill="none" stroke="black" cx="150.35" cy="-58.6" rx="105.09" ry="18"/>
<text text-anchor="middle" x="150.35" y="-53.55" font-family="Times,serif" font-size="14.00">PRUNING_TRIMMING</text>
</g>
<!-- p0&#45;&gt;p6 -->
<g id="edge1" class="edge">
<title>p0&#45;&gt;p6</title>
<path fill="none" stroke="black" d="M126.97,-128.92C126.2,-122.64 124.85,-106.93 128.6,-94.6 129.39,-92 130.42,-89.4 131.61,-86.86"/>
<polygon fill="black" stroke="black" points="134.62,-88.66 136.4,-78.22 128.49,-85.27 134.62,-88.66"/>
<text text-anchor="middle" x="150.73" y="-97.8" font-family="Times,serif" font-size="14.00">read_ch</text>
</g>
<!-- p7 -->
<g id="node8" class="node">
<title>p7</title>
<ellipse fill="black" stroke="black" cx="150.35" cy="-1.8" rx="1.8" ry="1.8"/>
</g>
<!-- p6&#45;&gt;p7 -->
<g id="edge5" class="edge">
<title>p6&#45;&gt;p7</title>
<path fill="none" stroke="black" d="M150.35,-40.26C150.35,-32.18 150.35,-22.74 150.35,-15.35"/>
<polygon fill="black" stroke="black" points="153.85,-15.51 150.35,-5.51 146.85,-15.51 153.85,-15.51"/>
</g>
<!-- p1 -->
<g id="node3" class="node">
<title>p1</title>
<ellipse fill="black" stroke="black" cx="298.35" cy="-132.7" rx="3.6" ry="3.6"/>
<text text-anchor="middle" x="244.88" y="-139.5" font-family="Times,serif" font-size="14.00">Channel.fromPath</text>
</g>
<!-- p2 -->
<g id="node4" class="node">
<title>p2</title>
<ellipse fill="black" stroke="black" cx="298.35" cy="-58.6" rx="1.8" ry="1.8"/>
</g>
<!-- p1&#45;&gt;p2 -->
<g id="edge2" class="edge">
<title>p1&#45;&gt;p2</title>
<path fill="none" stroke="black" d="M298.35,-128.6C298.35,-118.96 298.35,-89.11 298.35,-72"/>
<polygon fill="black" stroke="black" points="301.85,-72.08 298.35,-62.08 294.85,-72.08 301.85,-72.08"/>
<text text-anchor="middle" x="333.23" y="-97.8" font-family="Times,serif" font-size="14.00">reference_ch</text>
</g>
<!-- p3 -->
<g id="node5" class="node">
<title>p3</title>
<ellipse fill="black" stroke="black" cx="391.35" cy="-132.7" rx="3.6" ry="3.6"/>
<text text-anchor="middle" x="337.88" y="-115.8" font-family="Times,serif" font-size="14.00">Channel.fromPath</text>
</g>
<!-- p4 -->
<g id="node6" class="node">
<title>p4</title>
<ellipse fill="black" stroke="black" cx="391.35" cy="-58.6" rx="1.8" ry="1.8"/>
</g>
<!-- p3&#45;&gt;p4 -->
<g id="edge3" class="edge">
<title>p3&#45;&gt;p4</title>
<path fill="none" stroke="black" d="M391.35,-128.6C391.35,-118.96 391.35,-89.11 391.35,-72"/>
<polygon fill="black" stroke="black" points="394.85,-72.08 391.35,-62.08 387.85,-72.08 394.85,-72.08"/>
<text text-anchor="middle" x="434.85" y="-97.8" font-family="Times,serif" font-size="14.00">personal_ref_ch</text>
</g>
<!-- p5 -->
<g id="node7" class="node">
<title>p5</title>
<ellipse fill="black" stroke="black" cx="193.35" cy="-132.7" rx="3.6" ry="3.6"/>
</g>
<!-- p5&#45;&gt;p6 -->
<g id="edge4" class="edge">
<title>p5&#45;&gt;p6</title>
<path fill="none" stroke="black" d="M191.75,-129C188.13,-122.87 179.02,-107.46 171.35,-94.6 169.77,-91.95 168.12,-89.19 166.47,-86.44"/>
<polygon fill="black" stroke="black" points="169.54,-84.75 161.4,-77.98 163.54,-88.35 169.54,-84.75"/>
<text text-anchor="middle" x="212.85" y="-97.8" font-family="Times,serif" font-size="14.00">trimadapter</text>
</g>
</g>
</svg>
