<?xml version="1.0" encoding="UTF-8" standalone="no"?>
<!DOCTYPE svg PUBLIC "-//W3C//DTD SVG 1.1//EN"
 "http://www.w3.org/Graphics/SVG/1.1/DTD/svg11.dtd">
<!-- Generated by graphviz version 9.0.0 (20230911.1827)
 -->
<!-- Title: DVT_dag Pages: 1 -->
<svg width="847pt" height="736pt"
 viewBox="0.00 0.00 846.77 735.90" xmlns="http://www.w3.org/2000/svg" xmlns:xlink="http://www.w3.org/1999/xlink">
<g id="graph0" class="graph" transform="scale(1 1) rotate(0) translate(4 731.9)">
<title>DVT_dag</title>
<polygon fill="white" stroke="none" points="-4,4 -4,-731.9 842.77,-731.9 842.77,4 -4,4"/>
<!-- p0 -->
<g id="node1" class="node">
<title>p0</title>
<ellipse fill="black" stroke="black" cx="127.35" cy="-707.8" rx="3.6" ry="3.6"/>
<text text-anchor="middle" x="61.88" y="-714.6" font-family="Times,serif" font-size="14.00">Channel.fromFilePairs</text>
</g>
<!-- p8 -->
<g id="node2" class="node">
<title>p8</title>
<ellipse fill="none" stroke="black" cx="160.35" cy="-633.7" rx="105.09" ry="18"/>
<text text-anchor="middle" x="160.35" y="-628.65" font-family="Times,serif" font-size="14.00">PRUNING_TRIMMING</text>
</g>
<!-- p0&#45;&gt;p8 -->
<g id="edge1" class="edge">
<title>p0&#45;&gt;p8</title>
<path fill="none" stroke="black" d="M126.81,-703.97C125.72,-697.57 123.76,-681.64 128.6,-669.7 129.84,-666.64 131.48,-663.67 133.36,-660.84"/>
<polygon fill="black" stroke="black" points="136.07,-663.06 139.51,-653.04 130.57,-658.73 136.07,-663.06"/>
<text text-anchor="middle" x="150.73" y="-672.9" font-family="Times,serif" font-size="14.00">read_ch</text>
</g>
<!-- p10 -->
<g id="node10" class="node">
<title>p10</title>
<ellipse fill="none" stroke="black" cx="271.35" cy="-545.2" rx="132.73" ry="18"/>
<text text-anchor="middle" x="271.35" y="-540.15" font-family="Times,serif" font-size="14.00">SPECIE_GENOME_MAPPING</text>
</g>
<!-- p8&#45;&gt;p10 -->
<g id="edge7" class="edge">
<title>p8&#45;&gt;p10</title>
<path fill="none" stroke="black" d="M182.28,-615.61C198.93,-602.64 222.03,-584.63 240.53,-570.21"/>
<polygon fill="black" stroke="black" points="242.54,-573.09 248.27,-564.18 238.23,-567.57 242.54,-573.09"/>
</g>
<!-- p1 -->
<g id="node3" class="node">
<title>p1</title>
<ellipse fill="black" stroke="black" cx="445.35" cy="-707.8" rx="3.6" ry="3.6"/>
<text text-anchor="middle" x="391.88" y="-714.6" font-family="Times,serif" font-size="14.00">Channel.fromPath</text>
</g>
<!-- p2 -->
<g id="node4" class="node">
<title>p2</title>
<ellipse fill="none" stroke="black" cx="445.35" cy="-633.7" rx="136.31" ry="18"/>
<text text-anchor="middle" x="445.35" y="-628.65" font-family="Times,serif" font-size="14.00">PERSONAL_GENOME_INDEX</text>
</g>
<!-- p1&#45;&gt;p2 -->
<g id="edge2" class="edge">
<title>p1&#45;&gt;p2</title>
<path fill="none" stroke="black" d="M445.35,-703.7C445.35,-696.7 445.35,-679.04 445.35,-663.34"/>
<polygon fill="black" stroke="black" points="448.85,-663.44 445.35,-653.44 441.85,-663.44 448.85,-663.44"/>
<text text-anchor="middle" x="488.85" y="-672.9" font-family="Times,serif" font-size="14.00">personal_ref_ch</text>
</g>
<!-- p3 -->
<g id="node5" class="node">
<title>p3</title>
<ellipse fill="black" stroke="black" cx="445.35" cy="-545.2" rx="1.8" ry="1.8"/>
</g>
<!-- p2&#45;&gt;p3 -->
<g id="edge3" class="edge">
<title>p2&#45;&gt;p3</title>
<path fill="none" stroke="black" d="M445.35,-615.61C445.35,-598.83 445.35,-573.64 445.35,-558.67"/>
<polygon fill="black" stroke="black" points="448.85,-558.83 445.35,-548.83 441.85,-558.83 448.85,-558.83"/>
</g>
<!-- p4 -->
<g id="node6" class="node">
<title>p4</title>
<ellipse fill="black" stroke="black" cx="719.35" cy="-707.8" rx="3.6" ry="3.6"/>
<text text-anchor="middle" x="665.88" y="-714.6" font-family="Times,serif" font-size="14.00">Channel.fromPath</text>
</g>
<!-- p5 -->
<g id="node7" class="node">
<title>p5</title>
<ellipse fill="none" stroke="black" cx="719.35" cy="-633.7" rx="119.42" ry="18"/>
<text text-anchor="middle" x="719.35" y="-628.65" font-family="Times,serif" font-size="14.00">SPECIE_GENOME_INDEX</text>
</g>
<!-- p4&#45;&gt;p5 -->
<g id="edge4" class="edge">
<title>p4&#45;&gt;p5</title>
<path fill="none" stroke="black" d="M719.35,-703.7C719.35,-696.7 719.35,-679.04 719.35,-663.34"/>
<polygon fill="black" stroke="black" points="722.85,-663.44 719.35,-653.44 715.85,-663.44 722.85,-663.44"/>
<text text-anchor="middle" x="756.85" y="-672.9" font-family="Times,serif" font-size="14.00">specie_ref_ch</text>
</g>
<!-- p6 -->
<g id="node8" class="node">
<title>p6</title>
<ellipse fill="black" stroke="black" cx="719.35" cy="-545.2" rx="1.8" ry="1.8"/>
</g>
<!-- p5&#45;&gt;p6 -->
<g id="edge5" class="edge">
<title>p5&#45;&gt;p6</title>
<path fill="none" stroke="black" d="M719.35,-615.61C719.35,-598.83 719.35,-573.64 719.35,-558.67"/>
<polygon fill="black" stroke="black" points="722.85,-558.83 719.35,-548.83 715.85,-558.83 722.85,-558.83"/>
</g>
<!-- p7 -->
<g id="node9" class="node">
<title>p7</title>
<ellipse fill="black" stroke="black" cx="193.35" cy="-707.8" rx="3.6" ry="3.6"/>
</g>
<!-- p7&#45;&gt;p8 -->
<g id="edge6" class="edge">
<title>p7&#45;&gt;p8</title>
<path fill="none" stroke="black" d="M192.1,-704.06C188.93,-697.14 180.32,-678.34 172.87,-662.05"/>
<polygon fill="black" stroke="black" points="176.18,-660.88 168.84,-653.24 169.82,-663.79 176.18,-660.88"/>
<text text-anchor="middle" x="215.85" y="-672.9" font-family="Times,serif" font-size="14.00">trimadapter</text>
</g>
<!-- p11 -->
<g id="node12" class="node">
<title>p11</title>
<ellipse fill="none" stroke="black" cx="271.35" cy="-486.6" rx="3.6" ry="3.6"/>
<text text-anchor="middle" x="255.75" y="-493.4" font-family="Times,serif" font-size="14.00">map</text>
</g>
<!-- p10&#45;&gt;p11 -->
<g id="edge9" class="edge">
<title>p10&#45;&gt;p11</title>
<path fill="none" stroke="black" d="M271.35,-526.91C271.35,-518.88 271.35,-509.46 271.35,-501.85"/>
<polygon fill="black" stroke="black" points="274.85,-502.07 271.35,-492.07 267.85,-502.07 274.85,-502.07"/>
</g>
<!-- p9 -->
<g id="node11" class="node">
<title>p9</title>
<ellipse fill="black" stroke="black" cx="287.35" cy="-633.7" rx="3.6" ry="3.6"/>
</g>
<!-- p9&#45;&gt;p10 -->
<g id="edge8" class="edge">
<title>p9&#45;&gt;p10</title>
<path fill="none" stroke="black" d="M286.82,-629.82C285.24,-621.3 280.47,-595.52 276.64,-574.81"/>
<polygon fill="black" stroke="black" points="280.12,-574.36 274.86,-565.16 273.23,-575.63 280.12,-574.36"/>
<text text-anchor="middle" x="311.73" y="-584.4" font-family="Times,serif" font-size="14.00">index_base</text>
</g>
<!-- p12 -->
<g id="node13" class="node">
<title>p12</title>
<ellipse fill="none" stroke="black" cx="188.35" cy="-412.5" rx="3.6" ry="3.6"/>
<text text-anchor="middle" x="171.62" y="-419.3" font-family="Times,serif" font-size="14.00">view</text>
</g>
<!-- p11&#45;&gt;p12 -->
<g id="edge10" class="edge">
<title>p11&#45;&gt;p12</title>
<path fill="none" stroke="black" d="M267.55,-485.24C252.8,-483.75 199.65,-477.58 189.6,-465 181.19,-454.47 182.25,-438.49 184.54,-427.12"/>
<polygon fill="black" stroke="black" points="187.86,-428.25 187.02,-417.69 181.09,-426.48 187.86,-428.25"/>
<text text-anchor="middle" x="261.23" y="-451.7" font-family="Times,serif" font-size="14.00">specie_mapping_tuple_ch</text>
</g>
<!-- p15 -->
<g id="node15" class="node">
<title>p15</title>
<ellipse fill="none" stroke="black" cx="438.35" cy="-412.5" rx="149.62" ry="18"/>
<text text-anchor="middle" x="438.35" y="-407.45" font-family="Times,serif" font-size="14.00">PERSONAL_GENOME_MAPPING</text>
</g>
<!-- p11&#45;&gt;p15 -->
<g id="edge12" class="edge">
<title>p11&#45;&gt;p15</title>
<path fill="none" stroke="black" d="M274.79,-484.9C284.28,-482.87 311.47,-476.38 331.35,-465 341.13,-459.4 340.96,-454.33 350.6,-448.5 359.36,-443.2 369.06,-438.4 378.73,-434.18"/>
<polygon fill="black" stroke="black" points="379.89,-437.49 387.77,-430.41 377.19,-431.03 379.89,-437.49"/>
<text text-anchor="middle" x="422.23" y="-451.7" font-family="Times,serif" font-size="14.00">specie_mapping_tuple_ch</text>
</g>
<!-- p13 -->
<g id="node14" class="node">
<title>p13</title>
<ellipse fill="black" stroke="black" cx="188.35" cy="-353.9" rx="1.8" ry="1.8"/>
</g>
<!-- p12&#45;&gt;p13 -->
<g id="edge11" class="edge">
<title>p12&#45;&gt;p13</title>
<path fill="none" stroke="black" d="M188.35,-408.46C188.35,-400.8 188.35,-380.39 188.35,-367.1"/>
<polygon fill="black" stroke="black" points="191.85,-367.46 188.35,-357.46 184.85,-367.46 191.85,-367.46"/>
</g>
<!-- p16 -->
<g id="node17" class="node">
<title>p16</title>
<ellipse fill="none" stroke="black" cx="438.35" cy="-353.9" rx="3.6" ry="3.6"/>
<text text-anchor="middle" x="422.75" y="-360.7" font-family="Times,serif" font-size="14.00">map</text>
</g>
<!-- p15&#45;&gt;p16 -->
<g id="edge14" class="edge">
<title>p15&#45;&gt;p16</title>
<path fill="none" stroke="black" d="M438.35,-394.21C438.35,-386.18 438.35,-376.76 438.35,-369.15"/>
<polygon fill="black" stroke="black" points="441.85,-369.37 438.35,-359.37 434.85,-369.37 441.85,-369.37"/>
</g>
<!-- p14 -->
<g id="node16" class="node">
<title>p14</title>
<ellipse fill="black" stroke="black" cx="518.35" cy="-486.6" rx="3.6" ry="3.6"/>
</g>
<!-- p14&#45;&gt;p15 -->
<g id="edge13" class="edge">
<title>p14&#45;&gt;p15</title>
<path fill="none" stroke="black" d="M517.33,-482.97C514.69,-476.46 507.11,-459.34 496.35,-448.5 492.05,-444.17 487.12,-440.16 481.97,-436.51"/>
<polygon fill="black" stroke="black" points="484.14,-433.75 473.86,-431.19 480.3,-439.6 484.14,-433.75"/>
<text text-anchor="middle" x="542.1" y="-451.7" font-family="Times,serif" font-size="14.00">reference_id</text>
</g>
<!-- p17 -->
<g id="node18" class="node">
<title>p17</title>
<ellipse fill="none" stroke="black" cx="438.35" cy="-279.8" rx="89.23" ry="18"/>
<text text-anchor="middle" x="438.35" y="-274.75" font-family="Times,serif" font-size="14.00">MARKDUPLICATE</text>
</g>
<!-- p16&#45;&gt;p17 -->
<g id="edge15" class="edge">
<title>p16&#45;&gt;p17</title>
<path fill="none" stroke="black" d="M438.35,-349.8C438.35,-342.8 438.35,-325.14 438.35,-309.44"/>
<polygon fill="black" stroke="black" points="441.85,-309.54 438.35,-299.54 434.85,-309.54 441.85,-309.54"/>
<text text-anchor="middle" x="460.1" y="-319" font-family="Times,serif" font-size="14.00">bam_ch</text>
</g>
<!-- p18 -->
<g id="node19" class="node">
<title>p18</title>
<ellipse fill="none" stroke="black" cx="438.35" cy="-221.2" rx="3.6" ry="3.6"/>
<text text-anchor="middle" x="422.75" y="-228" font-family="Times,serif" font-size="14.00">map</text>
</g>
<!-- p17&#45;&gt;p18 -->
<g id="edge16" class="edge">
<title>p17&#45;&gt;p18</title>
<path fill="none" stroke="black" d="M438.35,-261.51C438.35,-253.48 438.35,-244.06 438.35,-236.45"/>
<polygon fill="black" stroke="black" points="441.85,-236.67 438.35,-226.67 434.85,-236.67 441.85,-236.67"/>
</g>
<!-- p19 -->
<g id="node20" class="node">
<title>p19</title>
<ellipse fill="none" stroke="black" cx="438.35" cy="-147.1" rx="84.62" ry="18"/>
<text text-anchor="middle" x="438.35" y="-142.05" font-family="Times,serif" font-size="14.00">ADDORREPLACE</text>
</g>
<!-- p18&#45;&gt;p19 -->
<g id="edge17" class="edge">
<title>p18&#45;&gt;p19</title>
<path fill="none" stroke="black" d="M438.35,-217.1C438.35,-210.1 438.35,-192.44 438.35,-176.74"/>
<polygon fill="black" stroke="black" points="441.85,-176.84 438.35,-166.84 434.85,-176.84 441.85,-176.84"/>
<text text-anchor="middle" x="467.6" y="-186.3" font-family="Times,serif" font-size="14.00">replace_ch</text>
</g>
<!-- p21 -->
<g id="node21" class="node">
<title>p21</title>
<ellipse fill="none" stroke="black" cx="491.35" cy="-58.6" rx="87.18" ry="18"/>
<text text-anchor="middle" x="491.35" y="-53.55" font-family="Times,serif" font-size="14.00">VARIANTCALLER</text>
</g>
<!-- p19&#45;&gt;p21 -->
<g id="edge18" class="edge">
<title>p19&#45;&gt;p21</title>
<path fill="none" stroke="black" d="M448.82,-129.01C456.25,-116.89 466.37,-100.37 474.87,-86.49"/>
<polygon fill="black" stroke="black" points="477.69,-88.6 479.93,-78.24 471.72,-84.94 477.69,-88.6"/>
</g>
<!-- p22 -->
<g id="node23" class="node">
<title>p22</title>
<ellipse fill="black" stroke="black" cx="491.35" cy="-1.8" rx="1.8" ry="1.8"/>
</g>
<!-- p21&#45;&gt;p22 -->
<g id="edge20" class="edge">
<title>p21&#45;&gt;p22</title>
<path fill="none" stroke="black" d="M491.35,-40.26C491.35,-32.18 491.35,-22.74 491.35,-15.35"/>
<polygon fill="black" stroke="black" points="494.85,-15.51 491.35,-5.51 487.85,-15.51 494.85,-15.51"/>
</g>
<!-- p20 -->
<g id="node22" class="node">
<title>p20</title>
<ellipse fill="black" stroke="black" cx="544.35" cy="-147.1" rx="3.6" ry="3.6"/>
</g>
<!-- p20&#45;&gt;p21 -->
<g id="edge19" class="edge">
<title>p20&#45;&gt;p21</title>
<path fill="none" stroke="black" d="M542.82,-143.6C537.69,-135.23 520.69,-107.49 507.62,-86.15"/>
<polygon fill="black" stroke="black" points="510.76,-84.58 502.55,-77.89 504.79,-88.24 510.76,-84.58"/>
<text text-anchor="middle" x="548.48" y="-97.8" font-family="Times,serif" font-size="14.00">reference</text>
</g>
</g>
</svg>
