<?xml version="1.0" encoding="UTF-8" standalone="no"?>
<!DOCTYPE svg PUBLIC "-//W3C//DTD SVG 1.1//EN"
 "http://www.w3.org/Graphics/SVG/1.1/DTD/svg11.dtd">
<!-- Generated by graphviz version 9.0.0 (20230911.1827)
 -->
<!-- Title: DVT_dag Pages: 1 -->
<svg width="546pt" height="161pt"
 viewBox="0.00 0.00 546.34 160.80" xmlns="http://www.w3.org/2000/svg" xmlns:xlink="http://www.w3.org/1999/xlink">
<g id="graph0" class="graph" transform="scale(1 1) rotate(0) translate(4 156.8)">
<title>DVT_dag</title>
<polygon fill="white" stroke="none" points="-4,4 -4,-156.8 542.34,-156.8 542.34,4 -4,4"/>
<!-- p0 -->
<g id="node1" class="node">
<title>p0</title>
<ellipse fill="black" stroke="black" cx="124.03" cy="-132.7" rx="3.6" ry="3.6"/>
<text text-anchor="middle" x="70.55" y="-139.5" font-family="Times,serif" font-size="14.00">Channel.fromPath</text>
</g>
<!-- p1 -->
<g id="node2" class="node">
<title>p1</title>
<ellipse fill="none" stroke="black" cx="124.03" cy="-58.6" rx="124.03" ry="18"/>
<text text-anchor="middle" x="124.03" y="-53.55" font-family="Times,serif" font-size="14.00">HUMAN_GENOME_INDEX</text>
</g>
<!-- p0&#45;&gt;p1 -->
<g id="edge1" class="edge">
<title>p0&#45;&gt;p1</title>
<path fill="none" stroke="black" d="M124.03,-128.6C124.03,-121.6 124.03,-103.94 124.03,-88.24"/>
<polygon fill="black" stroke="black" points="127.53,-88.34 124.03,-78.34 120.53,-88.34 127.53,-88.34"/>
<text text-anchor="middle" x="158.9" y="-97.8" font-family="Times,serif" font-size="14.00">reference_ch</text>
</g>
<!-- p2 -->
<g id="node3" class="node">
<title>p2</title>
<ellipse fill="black" stroke="black" cx="124.03" cy="-1.8" rx="1.8" ry="1.8"/>
</g>
<!-- p1&#45;&gt;p2 -->
<g id="edge2" class="edge">
<title>p1&#45;&gt;p2</title>
<path fill="none" stroke="black" d="M124.03,-40.26C124.03,-32.18 124.03,-22.74 124.03,-15.35"/>
<polygon fill="black" stroke="black" points="127.53,-15.51 124.03,-5.51 120.53,-15.51 127.53,-15.51"/>
</g>
<!-- p3 -->
<g id="node4" class="node">
<title>p3</title>
<ellipse fill="black" stroke="black" cx="402.03" cy="-132.7" rx="3.6" ry="3.6"/>
<text text-anchor="middle" x="348.55" y="-139.5" font-family="Times,serif" font-size="14.00">Channel.fromPath</text>
</g>
<!-- p4 -->
<g id="node5" class="node">
<title>p4</title>
<ellipse fill="none" stroke="black" cx="402.03" cy="-58.6" rx="136.31" ry="18"/>
<text text-anchor="middle" x="402.03" y="-53.55" font-family="Times,serif" font-size="14.00">PERSONAL_GENOME_INDEX</text>
</g>
<!-- p3&#45;&gt;p4 -->
<g id="edge3" class="edge">
<title>p3&#45;&gt;p4</title>
<path fill="none" stroke="black" d="M402.03,-128.6C402.03,-121.6 402.03,-103.94 402.03,-88.24"/>
<polygon fill="black" stroke="black" points="405.53,-88.34 402.03,-78.34 398.53,-88.34 405.53,-88.34"/>
<text text-anchor="middle" x="445.53" y="-97.8" font-family="Times,serif" font-size="14.00">personal_ref_ch</text>
</g>
<!-- p5 -->
<g id="node6" class="node">
<title>p5</title>
<ellipse fill="black" stroke="black" cx="402.03" cy="-1.8" rx="1.8" ry="1.8"/>
</g>
<!-- p4&#45;&gt;p5 -->
<g id="edge4" class="edge">
<title>p4&#45;&gt;p5</title>
<path fill="none" stroke="black" d="M402.03,-40.26C402.03,-32.18 402.03,-22.74 402.03,-15.35"/>
<polygon fill="black" stroke="black" points="405.53,-15.51 402.03,-5.51 398.53,-15.51 405.53,-15.51"/>
</g>
</g>
</svg>
