<?xml version="1.0" encoding="UTF-8" standalone="no"?>
<!DOCTYPE svg PUBLIC "-//W3C//DTD SVG 1.1//EN"
 "http://www.w3.org/Graphics/SVG/1.1/DTD/svg11.dtd">
<!-- Generated by graphviz version 9.0.0 (20230911.1827)
 -->
<!-- Title: DVT_dag Pages: 1 -->
<svg width="869pt" height="692pt"
 viewBox="0.00 0.00 868.66 691.70" xmlns="http://www.w3.org/2000/svg" xmlns:xlink="http://www.w3.org/1999/xlink">
<g id="graph0" class="graph" transform="scale(1 1) rotate(0) translate(4 687.7)">
<title>DVT_dag</title>
<polygon fill="white" stroke="none" points="-4,4 -4,-687.7 864.66,-687.7 864.66,4 -4,4"/>
<!-- p0 -->
<g id="node1" class="node">
<title>p0</title>
<ellipse fill="black" stroke="black" cx="127.35" cy="-663.6" rx="3.6" ry="3.6"/>
<text text-anchor="middle" x="61.88" y="-670.4" font-family="Times,serif" font-size="14.00">Channel.fromFilePairs</text>
</g>
<!-- p8 -->
<g id="node2" class="node">
<title>p8</title>
<ellipse fill="none" stroke="black" cx="160.35" cy="-589.5" rx="105.09" ry="18"/>
<text text-anchor="middle" x="160.35" y="-584.45" font-family="Times,serif" font-size="14.00">PRUNING_TRIMMING</text>
</g>
<!-- p0&#45;&gt;p8 -->
<g id="edge1" class="edge">
<title>p0&#45;&gt;p8</title>
<path fill="none" stroke="black" d="M126.81,-659.77C125.72,-653.37 123.76,-637.44 128.6,-625.5 129.84,-622.44 131.48,-619.47 133.36,-616.64"/>
<polygon fill="black" stroke="black" points="136.07,-618.86 139.51,-608.84 130.57,-614.53 136.07,-618.86"/>
<text text-anchor="middle" x="150.73" y="-628.7" font-family="Times,serif" font-size="14.00">read_ch</text>
</g>
<!-- p10 -->
<g id="node10" class="node">
<title>p10</title>
<ellipse fill="none" stroke="black" cx="273.35" cy="-501" rx="123.52" ry="18"/>
<text text-anchor="middle" x="273.35" y="-495.95" font-family="Times,serif" font-size="14.00">PRUNING_HUMAN_NOISE</text>
</g>
<!-- p8&#45;&gt;p10 -->
<g id="edge7" class="edge">
<title>p8&#45;&gt;p10</title>
<path fill="none" stroke="black" d="M182.41,-571.62C199.33,-558.66 222.92,-540.6 241.83,-526.13"/>
<polygon fill="black" stroke="black" points="243.95,-528.91 249.76,-520.06 239.69,-523.36 243.95,-528.91"/>
</g>
<!-- p1 -->
<g id="node3" class="node">
<title>p1</title>
<ellipse fill="black" stroke="black" cx="446.35" cy="-663.6" rx="3.6" ry="3.6"/>
<text text-anchor="middle" x="392.88" y="-670.4" font-family="Times,serif" font-size="14.00">Channel.fromPath</text>
</g>
<!-- p2 -->
<g id="node4" class="node">
<title>p2</title>
<ellipse fill="none" stroke="black" cx="446.35" cy="-589.5" rx="124.03" ry="18"/>
<text text-anchor="middle" x="446.35" y="-584.45" font-family="Times,serif" font-size="14.00">HUMAN_GENOME_INDEX</text>
</g>
<!-- p1&#45;&gt;p2 -->
<g id="edge2" class="edge">
<title>p1&#45;&gt;p2</title>
<path fill="none" stroke="black" d="M446.35,-659.5C446.35,-652.5 446.35,-634.84 446.35,-619.14"/>
<polygon fill="black" stroke="black" points="449.85,-619.24 446.35,-609.24 442.85,-619.24 449.85,-619.24"/>
<text text-anchor="middle" x="481.23" y="-628.7" font-family="Times,serif" font-size="14.00">reference_ch</text>
</g>
<!-- p3 -->
<g id="node5" class="node">
<title>p3</title>
<ellipse fill="black" stroke="black" cx="446.35" cy="-501" rx="1.8" ry="1.8"/>
</g>
<!-- p2&#45;&gt;p3 -->
<g id="edge3" class="edge">
<title>p2&#45;&gt;p3</title>
<path fill="none" stroke="black" d="M446.35,-571.41C446.35,-554.63 446.35,-529.44 446.35,-514.47"/>
<polygon fill="black" stroke="black" points="449.85,-514.63 446.35,-504.63 442.85,-514.63 449.85,-514.63"/>
</g>
<!-- p4 -->
<g id="node6" class="node">
<title>p4</title>
<ellipse fill="black" stroke="black" cx="724.35" cy="-663.6" rx="3.6" ry="3.6"/>
<text text-anchor="middle" x="670.88" y="-670.4" font-family="Times,serif" font-size="14.00">Channel.fromPath</text>
</g>
<!-- p5 -->
<g id="node7" class="node">
<title>p5</title>
<ellipse fill="none" stroke="black" cx="724.35" cy="-589.5" rx="136.31" ry="18"/>
<text text-anchor="middle" x="724.35" y="-584.45" font-family="Times,serif" font-size="14.00">PERSONAL_GENOME_INDEX</text>
</g>
<!-- p4&#45;&gt;p5 -->
<g id="edge4" class="edge">
<title>p4&#45;&gt;p5</title>
<path fill="none" stroke="black" d="M724.35,-659.5C724.35,-652.5 724.35,-634.84 724.35,-619.14"/>
<polygon fill="black" stroke="black" points="727.85,-619.24 724.35,-609.24 720.85,-619.24 727.85,-619.24"/>
<text text-anchor="middle" x="767.85" y="-628.7" font-family="Times,serif" font-size="14.00">personal_ref_ch</text>
</g>
<!-- p6 -->
<g id="node8" class="node">
<title>p6</title>
<ellipse fill="black" stroke="black" cx="724.35" cy="-501" rx="1.8" ry="1.8"/>
</g>
<!-- p5&#45;&gt;p6 -->
<g id="edge5" class="edge">
<title>p5&#45;&gt;p6</title>
<path fill="none" stroke="black" d="M724.35,-571.41C724.35,-554.63 724.35,-529.44 724.35,-514.47"/>
<polygon fill="black" stroke="black" points="727.85,-514.63 724.35,-504.63 720.85,-514.63 727.85,-514.63"/>
</g>
<!-- p7 -->
<g id="node9" class="node">
<title>p7</title>
<ellipse fill="black" stroke="black" cx="193.35" cy="-663.6" rx="3.6" ry="3.6"/>
</g>
<!-- p7&#45;&gt;p8 -->
<g id="edge6" class="edge">
<title>p7&#45;&gt;p8</title>
<path fill="none" stroke="black" d="M192.1,-659.86C188.93,-652.94 180.32,-634.14 172.87,-617.85"/>
<polygon fill="black" stroke="black" points="176.18,-616.68 168.84,-609.04 169.82,-619.59 176.18,-616.68"/>
<text text-anchor="middle" x="215.85" y="-628.7" font-family="Times,serif" font-size="14.00">trimadapter</text>
</g>
<!-- p12 -->
<g id="node12" class="node">
<title>p12</title>
<ellipse fill="none" stroke="black" cx="345.35" cy="-412.5" rx="149.62" ry="18"/>
<text text-anchor="middle" x="345.35" y="-407.45" font-family="Times,serif" font-size="14.00">PERSONAL_GENOME_MAPPING</text>
</g>
<!-- p10&#45;&gt;p12 -->
<g id="edge9" class="edge">
<title>p10&#45;&gt;p12</title>
<path fill="none" stroke="black" d="M287.57,-482.91C297.86,-470.55 311.95,-453.63 323.64,-439.58"/>
<polygon fill="black" stroke="black" points="326.23,-441.94 329.94,-432.01 320.85,-437.46 326.23,-441.94"/>
</g>
<!-- p9 -->
<g id="node11" class="node">
<title>p9</title>
<ellipse fill="black" stroke="black" cx="287.35" cy="-589.5" rx="3.6" ry="3.6"/>
</g>
<!-- p9&#45;&gt;p10 -->
<g id="edge8" class="edge">
<title>p9&#45;&gt;p10</title>
<path fill="none" stroke="black" d="M286.88,-585.62C285.51,-577.1 281.33,-551.32 277.98,-530.61"/>
<polygon fill="black" stroke="black" points="281.47,-530.28 276.42,-520.97 274.56,-531.4 281.47,-530.28"/>
<text text-anchor="middle" x="316.1" y="-540.2" font-family="Times,serif" font-size="14.00">reference_id</text>
</g>
<!-- p13 -->
<g id="node14" class="node">
<title>p13</title>
<ellipse fill="none" stroke="black" cx="345.35" cy="-353.9" rx="3.6" ry="3.6"/>
<text text-anchor="middle" x="329.75" y="-360.7" font-family="Times,serif" font-size="14.00">map</text>
</g>
<!-- p12&#45;&gt;p13 -->
<g id="edge11" class="edge">
<title>p12&#45;&gt;p13</title>
<path fill="none" stroke="black" d="M345.35,-394.21C345.35,-386.18 345.35,-376.76 345.35,-369.15"/>
<polygon fill="black" stroke="black" points="348.85,-369.37 345.35,-359.37 341.85,-369.37 348.85,-369.37"/>
</g>
<!-- p11 -->
<g id="node13" class="node">
<title>p11</title>
<ellipse fill="black" stroke="black" cx="418.35" cy="-501" rx="3.6" ry="3.6"/>
</g>
<!-- p11&#45;&gt;p12 -->
<g id="edge10" class="edge">
<title>p11&#45;&gt;p12</title>
<path fill="none" stroke="black" d="M416.72,-497.52C414.48,-494.16 410.29,-487.99 406.35,-483 394.56,-468.04 380.6,-452.02 369.01,-439.14"/>
<polygon fill="black" stroke="black" points="371.75,-436.95 362.44,-431.89 366.56,-441.65 371.75,-436.95"/>
<text text-anchor="middle" x="424.1" y="-451.7" font-family="Times,serif" font-size="14.00">reference_id</text>
</g>
<!-- p14 -->
<g id="node15" class="node">
<title>p14</title>
<ellipse fill="none" stroke="black" cx="345.35" cy="-279.8" rx="89.23" ry="18"/>
<text text-anchor="middle" x="345.35" y="-274.75" font-family="Times,serif" font-size="14.00">MARKDUPLICATE</text>
</g>
<!-- p13&#45;&gt;p14 -->
<g id="edge12" class="edge">
<title>p13&#45;&gt;p14</title>
<path fill="none" stroke="black" d="M345.35,-349.8C345.35,-342.8 345.35,-325.14 345.35,-309.44"/>
<polygon fill="black" stroke="black" points="348.85,-309.54 345.35,-299.54 341.85,-309.54 348.85,-309.54"/>
<text text-anchor="middle" x="367.1" y="-319" font-family="Times,serif" font-size="14.00">bam_ch</text>
</g>
<!-- p15 -->
<g id="node16" class="node">
<title>p15</title>
<ellipse fill="none" stroke="black" cx="345.35" cy="-221.2" rx="3.6" ry="3.6"/>
<text text-anchor="middle" x="329.75" y="-228" font-family="Times,serif" font-size="14.00">map</text>
</g>
<!-- p14&#45;&gt;p15 -->
<g id="edge13" class="edge">
<title>p14&#45;&gt;p15</title>
<path fill="none" stroke="black" d="M345.35,-261.51C345.35,-253.48 345.35,-244.06 345.35,-236.45"/>
<polygon fill="black" stroke="black" points="348.85,-236.67 345.35,-226.67 341.85,-236.67 348.85,-236.67"/>
</g>
<!-- p16 -->
<g id="node17" class="node">
<title>p16</title>
<ellipse fill="none" stroke="black" cx="345.35" cy="-147.1" rx="84.62" ry="18"/>
<text text-anchor="middle" x="345.35" y="-142.05" font-family="Times,serif" font-size="14.00">ADDORREPLACE</text>
</g>
<!-- p15&#45;&gt;p16 -->
<g id="edge14" class="edge">
<title>p15&#45;&gt;p16</title>
<path fill="none" stroke="black" d="M345.35,-217.1C345.35,-210.1 345.35,-192.44 345.35,-176.74"/>
<polygon fill="black" stroke="black" points="348.85,-176.84 345.35,-166.84 341.85,-176.84 348.85,-176.84"/>
<text text-anchor="middle" x="374.6" y="-186.3" font-family="Times,serif" font-size="14.00">replace_ch</text>
</g>
<!-- p18 -->
<g id="node18" class="node">
<title>p18</title>
<ellipse fill="none" stroke="black" cx="398.35" cy="-58.6" rx="87.18" ry="18"/>
<text text-anchor="middle" x="398.35" y="-53.55" font-family="Times,serif" font-size="14.00">VARIANTCALLER</text>
</g>
<!-- p16&#45;&gt;p18 -->
<g id="edge15" class="edge">
<title>p16&#45;&gt;p18</title>
<path fill="none" stroke="black" d="M355.82,-129.01C363.25,-116.89 373.37,-100.37 381.87,-86.49"/>
<polygon fill="black" stroke="black" points="384.69,-88.6 386.93,-78.24 378.72,-84.94 384.69,-88.6"/>
</g>
<!-- p19 -->
<g id="node20" class="node">
<title>p19</title>
<ellipse fill="black" stroke="black" cx="398.35" cy="-1.8" rx="1.8" ry="1.8"/>
</g>
<!-- p18&#45;&gt;p19 -->
<g id="edge17" class="edge">
<title>p18&#45;&gt;p19</title>
<path fill="none" stroke="black" d="M398.35,-40.26C398.35,-32.18 398.35,-22.74 398.35,-15.35"/>
<polygon fill="black" stroke="black" points="401.85,-15.51 398.35,-5.51 394.85,-15.51 401.85,-15.51"/>
</g>
<!-- p17 -->
<g id="node19" class="node">
<title>p17</title>
<ellipse fill="black" stroke="black" cx="451.35" cy="-147.1" rx="3.6" ry="3.6"/>
</g>
<!-- p17&#45;&gt;p18 -->
<g id="edge16" class="edge">
<title>p17&#45;&gt;p18</title>
<path fill="none" stroke="black" d="M449.82,-143.6C444.69,-135.23 427.69,-107.49 414.62,-86.15"/>
<polygon fill="black" stroke="black" points="417.76,-84.58 409.55,-77.89 411.79,-88.24 417.76,-84.58"/>
<text text-anchor="middle" x="455.48" y="-97.8" font-family="Times,serif" font-size="14.00">reference</text>
</g>
</g>
</svg>
