<?xml version="1.0" encoding="UTF-8" standalone="no"?>
<!DOCTYPE svg PUBLIC "-//W3C//DTD SVG 1.1//EN"
 "http://www.w3.org/Graphics/SVG/1.1/DTD/svg11.dtd">
<!-- Generated by graphviz version 9.0.0 (20230911.1827)
 -->
<!-- Title: DVT_dag Pages: 1 -->
<svg width="672pt" height="249pt"
 viewBox="0.00 0.00 672.35 249.30" xmlns="http://www.w3.org/2000/svg" xmlns:xlink="http://www.w3.org/1999/xlink">
<g id="graph0" class="graph" transform="scale(1 1) rotate(0) translate(4 245.3)">
<title>DVT_dag</title>
<polygon fill="white" stroke="none" points="-4,4 -4,-245.3 668.35,-245.3 668.35,4 -4,4"/>
<!-- p0 -->
<g id="node1" class="node">
<title>p0</title>
<ellipse fill="black" stroke="black" cx="127.35" cy="-221.2" rx="3.6" ry="3.6"/>
<text text-anchor="middle" x="61.88" y="-228" font-family="Times,serif" font-size="14.00">Channel.fromFilePairs</text>
</g>
<!-- p7 -->
<g id="node2" class="node">
<title>p7</title>
<ellipse fill="none" stroke="black" cx="160.35" cy="-147.1" rx="105.09" ry="18"/>
<text text-anchor="middle" x="160.35" y="-142.05" font-family="Times,serif" font-size="14.00">PRUNING_TRIMMING</text>
</g>
<!-- p0&#45;&gt;p7 -->
<g id="edge1" class="edge">
<title>p0&#45;&gt;p7</title>
<path fill="none" stroke="black" d="M126.81,-217.37C125.72,-210.97 123.76,-195.04 128.6,-183.1 129.84,-180.04 131.48,-177.07 133.36,-174.24"/>
<polygon fill="black" stroke="black" points="136.07,-176.46 139.51,-166.44 130.57,-172.13 136.07,-176.46"/>
<text text-anchor="middle" x="150.73" y="-186.3" font-family="Times,serif" font-size="14.00">read_ch</text>
</g>
<!-- p9 -->
<g id="node9" class="node">
<title>p9</title>
<ellipse fill="none" stroke="black" cx="271.35" cy="-58.6" rx="123.52" ry="18"/>
<text text-anchor="middle" x="271.35" y="-53.55" font-family="Times,serif" font-size="14.00">PRUNING_HUMAN_NOISE</text>
</g>
<!-- p7&#45;&gt;p9 -->
<g id="edge6" class="edge">
<title>p7&#45;&gt;p9</title>
<path fill="none" stroke="black" d="M182.28,-129.01C198.93,-116.04 222.03,-98.03 240.53,-83.61"/>
<polygon fill="black" stroke="black" points="242.54,-86.49 248.27,-77.58 238.23,-80.97 242.54,-86.49"/>
</g>
<!-- p1 -->
<g id="node3" class="node">
<title>p1</title>
<ellipse fill="black" stroke="black" cx="433.35" cy="-221.2" rx="3.6" ry="3.6"/>
<text text-anchor="middle" x="379.88" y="-228" font-family="Times,serif" font-size="14.00">Channel.fromPath</text>
</g>
<!-- p2 -->
<g id="node4" class="node">
<title>p2</title>
<ellipse fill="none" stroke="black" cx="433.35" cy="-147.1" rx="124.03" ry="18"/>
<text text-anchor="middle" x="433.35" y="-142.05" font-family="Times,serif" font-size="14.00">HUMAN_GENOME_INDEX</text>
</g>
<!-- p1&#45;&gt;p2 -->
<g id="edge2" class="edge">
<title>p1&#45;&gt;p2</title>
<path fill="none" stroke="black" d="M433.35,-217.1C433.35,-210.1 433.35,-192.44 433.35,-176.74"/>
<polygon fill="black" stroke="black" points="436.85,-176.84 433.35,-166.84 429.85,-176.84 436.85,-176.84"/>
<text text-anchor="middle" x="468.23" y="-186.3" font-family="Times,serif" font-size="14.00">reference_ch</text>
</g>
<!-- p3 -->
<g id="node5" class="node">
<title>p3</title>
<ellipse fill="black" stroke="black" cx="433.35" cy="-58.6" rx="1.8" ry="1.8"/>
</g>
<!-- p2&#45;&gt;p3 -->
<g id="edge3" class="edge">
<title>p2&#45;&gt;p3</title>
<path fill="none" stroke="black" d="M433.35,-129.01C433.35,-112.23 433.35,-87.04 433.35,-72.07"/>
<polygon fill="black" stroke="black" points="436.85,-72.23 433.35,-62.23 429.85,-72.23 436.85,-72.23"/>
</g>
<!-- p4 -->
<g id="node6" class="node">
<title>p4</title>
<ellipse fill="black" stroke="black" cx="577.35" cy="-221.2" rx="3.6" ry="3.6"/>
<text text-anchor="middle" x="523.88" y="-228" font-family="Times,serif" font-size="14.00">Channel.fromPath</text>
</g>
<!-- p5 -->
<g id="node7" class="node">
<title>p5</title>
<ellipse fill="black" stroke="black" cx="577.35" cy="-147.1" rx="1.8" ry="1.8"/>
</g>
<!-- p4&#45;&gt;p5 -->
<g id="edge4" class="edge">
<title>p4&#45;&gt;p5</title>
<path fill="none" stroke="black" d="M577.35,-217.1C577.35,-207.46 577.35,-177.61 577.35,-160.5"/>
<polygon fill="black" stroke="black" points="580.85,-160.58 577.35,-150.58 573.85,-160.58 580.85,-160.58"/>
<text text-anchor="middle" x="620.85" y="-186.3" font-family="Times,serif" font-size="14.00">personal_ref_ch</text>
</g>
<!-- p6 -->
<g id="node8" class="node">
<title>p6</title>
<ellipse fill="black" stroke="black" cx="193.35" cy="-221.2" rx="3.6" ry="3.6"/>
</g>
<!-- p6&#45;&gt;p7 -->
<g id="edge5" class="edge">
<title>p6&#45;&gt;p7</title>
<path fill="none" stroke="black" d="M192.1,-217.46C188.93,-210.54 180.32,-191.74 172.87,-175.45"/>
<polygon fill="black" stroke="black" points="176.18,-174.28 168.84,-166.64 169.82,-177.19 176.18,-174.28"/>
<text text-anchor="middle" x="215.85" y="-186.3" font-family="Times,serif" font-size="14.00">trimadapter</text>
</g>
<!-- p10 -->
<g id="node11" class="node">
<title>p10</title>
<ellipse fill="black" stroke="black" cx="271.35" cy="-1.8" rx="1.8" ry="1.8"/>
</g>
<!-- p9&#45;&gt;p10 -->
<g id="edge8" class="edge">
<title>p9&#45;&gt;p10</title>
<path fill="none" stroke="black" d="M271.35,-40.26C271.35,-32.18 271.35,-22.74 271.35,-15.35"/>
<polygon fill="black" stroke="black" points="274.85,-15.51 271.35,-5.51 267.85,-15.51 274.85,-15.51"/>
</g>
<!-- p8 -->
<g id="node10" class="node">
<title>p8</title>
<ellipse fill="black" stroke="black" cx="287.35" cy="-147.1" rx="3.6" ry="3.6"/>
</g>
<!-- p8&#45;&gt;p9 -->
<g id="edge7" class="edge">
<title>p8&#45;&gt;p9</title>
<path fill="none" stroke="black" d="M286.82,-143.22C285.24,-134.7 280.47,-108.92 276.64,-88.21"/>
<polygon fill="black" stroke="black" points="280.12,-87.76 274.86,-78.56 273.23,-89.03 280.12,-87.76"/>
<text text-anchor="middle" x="315.1" y="-97.8" font-family="Times,serif" font-size="14.00">reference_id</text>
</g>
</g>
</svg>
